ffmpeg version 4.4.2-0ubuntu0.22.04.1 Copyright (c) 2000-2021 the FFmpeg developers
  built with gcc 11 (Ubuntu 11.2.0-19ubuntu1)
  configuration: --prefix=/usr --extra-version=0ubuntu0.22.04.1 --toolchain=hardened --libdir=/usr/lib/x86_64-linux-gnu --incdir=/usr/include/x86_64-linux-gnu --arch=amd64 --enable-gpl --disable-stripping --enable-gnutls --enable-ladspa --enable-libaom --enable-libass --enable-libbluray --enable-libbs2b --enable-libcaca --enable-libcdio --enable-libcodec2 --enable-libdav1d --enable-libflite --enable-libfontconfig --enable-libfreetype --enable-libfribidi --enable-libgme --enable-libgsm --enable-libjack --enable-libmp3lame --enable-libmysofa --enable-libopenjpeg --enable-libopenmpt --enable-libopus --enable-libpulse --enable-librabbitmq --enable-librubberband --enable-libshine --enable-libsnappy --enable-libsoxr --enable-libspeex --enable-libsrt --enable-libssh --enable-libtheora --enable-libtwolame --enable-libvidstab --enable-libvorbis --enable-libvpx --enable-libwebp --enable-libx265 --enable-libxml2 --enable-libxvid --enable-libzimg --enable-libzmq --enable-libzvbi --enable-lv2 --enable-omx --enable-openal --enable-opencl --enable-opengl --enable-sdl2 --enable-pocketsphinx --enable-librsvg --enable-libmfx --enable-libdc1394 --enable-libdrm --enable-libiec61883 --enable-chromaprint --enable-frei0r --enable-libx264 --enable-shared
  libavutil      56. 70.100 / 56. 70.100
  libavcodec     58.134.100 / 58.134.100
  libavformat    58. 76.100 / 58. 76.100
  libavdevice    58. 13.100 / 58. 13.100
  libavfilter     7.110.100 /  7.110.100
  libswscale      5.  9.100 /  5.  9.100
  libswresample   3.  9.100 /  3.  9.100
  libpostproc    55.  9.100 / 55.  9.100
Input #0, flv, from '/storage/32426326/20250609/32426326-20250609-125652-742.flv':
  Metadata:
    displayHeight   : 1080
    fps             : 60
    level           : 
    encoder         : obs-output module (libobs version 31.0.2)
    displayWidth    : 1920
    Rawdata         : 
    profile         : 
    cdn_ip          : 192.168.252.7
    Title           : 技术主播没有GG
    Artist          : 蓝音BuBuLine (32426326)
    Comment         : mikufans直播间 32426326 的直播录像
                    : 主播名: 蓝音BuBuLine
                    : 直播标题: 技术主播没有GG
                    : 直播分区: 单机游戏·主机游戏
                    : 录制时间: 2025-06-09T12:56:52.7519899+00:00
                    : 直播服务器:
                    : d1--ov-gotcha07b.bilivideo.com [156.59.188.247]
                    : 
                    : 使用 mikufans录播姬 录制 https://rec.danmuji.org
                    : 录播姬版本: 2.11.0
    RecordedBy      : BililiveRecorder mikufans录播姬
    RecordedFrom    : d1--ov-gotcha07b.bilivideo.com
    StreamServers   : d1--ov-gotcha07b.bilivideo.com [156.59.188.247]
    RecorderVersion : 2.11.0+Branch.tags-v2.11.0.Sha.d32ebb97483b1ae77acfc6dbcfef17bd64913ccd
    StartTime       : Mon, 09 Jun 2025 12:56:52 +0000
    RoomId          : 32426326
    ShortId         : 0
    Name            : 蓝音BuBuLine
    StreamTitle     : 技术主播没有GG
    AreaNameParent  : 单机游戏
    AreaNameChild   : 主机游戏
  Duration: 08:14:28.48, start: 0.035000, bitrate: 7374 kb/s
  Stream #0:0: Video: h264 (High), yuv420p(tv, bt709, progressive), 1920x1080 [SAR 1:1 DAR 16:9], 8192 kb/s, 60 fps, 60 tbr, 1k tbn, 120 tbc
  Stream #0:1: Audio: aac (LC), 48000 Hz, stereo, fltp, 131 kb/s
Stream mapping:
  Stream #0:0 -> #0:0 (h264 (native) -> png (native))
Press [q] to stop, [?] for help
Output #0, image2, to '/storage/32426326/20250609/32426326-20250609-125652-742.all.thumb.png':
  Metadata:
    displayHeight   : 1080
    fps             : 60
    level           : 
    AreaNameChild   : 主机游戏
    displayWidth    : 1920
    Rawdata         : 
    profile         : 
    cdn_ip          : 192.168.252.7
    Title           : 技术主播没有GG
    Artist          : 蓝音BuBuLine (32426326)
    Comment         : mikufans直播间 32426326 的直播录像
                    : 主播名: 蓝音BuBuLine
                    : 直播标题: 技术主播没有GG
                    : 直播分区: 单机游戏·主机游戏
                    : 录制时间: 2025-06-09T12:56:52.7519899+00:00
                    : 直播服务器:
                    : d1--ov-gotcha07b.bilivideo.com [156.59.188.247]
                    : 
                    : 使用 mikufans录播姬 录制 https://rec.danmuji.org
                    : 录播姬版本: 2.11.0
    RecordedBy      : BililiveRecorder mikufans录播姬
    RecordedFrom    : d1--ov-gotcha07b.bilivideo.com
    StreamServers   : d1--ov-gotcha07b.bilivideo.com [156.59.188.247]
    RecorderVersion : 2.11.0+Branch.tags-v2.11.0.Sha.d32ebb97483b1ae77acfc6dbcfef17bd64913ccd
    StartTime       : Mon, 09 Jun 2025 12:56:52 +0000
    RoomId          : 32426326
    ShortId         : 0
    Name            : 蓝音BuBuLine
    StreamTitle     : 技术主播没有GG
    AreaNameParent  : 单机游戏
    encoder         : Lavf58.76.100
  Stream #0:0: Video: png, rgb24(pc, gbr/bt709/bt709, progressive), 1920x1080 [SAR 1:1 DAR 16:9], q=2-31, 200 kb/s, 60 fps, 60 tbn
    Metadata:
      encoder         : Lavc58.134.100 png
frame=    1 fps=0.0 q=0.0 size=N/A time=00:00:00.00 bitrate=N/A speed=   0x    frame=    1 fps=0.0 q=-0.0 Lsize=N/A time=00:00:00.01 bitrate=N/A speed=0.0633x    
video:1692kB audio:0kB subtitle:0kB other streams:0kB global headers:0kB muxing overhead: unknown
ffmpeg version 4.4.2-0ubuntu0.22.04.1 Copyright (c) 2000-2021 the FFmpeg developers
  built with gcc 11 (Ubuntu 11.2.0-19ubuntu1)
  configuration: --prefix=/usr --extra-version=0ubuntu0.22.04.1 --toolchain=hardened --libdir=/usr/lib/x86_64-linux-gnu --incdir=/usr/include/x86_64-linux-gnu --arch=amd64 --enable-gpl --disable-stripping --enable-gnutls --enable-ladspa --enable-libaom --enable-libass --enable-libbluray --enable-libbs2b --enable-libcaca --enable-libcdio --enable-libcodec2 --enable-libdav1d --enable-libflite --enable-libfontconfig --enable-libfreetype --enable-libfribidi --enable-libgme --enable-libgsm --enable-libjack --enable-libmp3lame --enable-libmysofa --enable-libopenjpeg --enable-libopenmpt --enable-libopus --enable-libpulse --enable-librabbitmq --enable-librubberband --enable-libshine --enable-libsnappy --enable-libsoxr --enable-libspeex --enable-libsrt --enable-libssh --enable-libtheora --enable-libtwolame --enable-libvidstab --enable-libvorbis --enable-libvpx --enable-libwebp --enable-libx265 --enable-libxml2 --enable-libxvid --enable-libzimg --enable-libzmq --enable-libzvbi --enable-lv2 --enable-omx --enable-openal --enable-opencl --enable-opengl --enable-sdl2 --enable-pocketsphinx --enable-librsvg --enable-libmfx --enable-libdc1394 --enable-libdrm --enable-libiec61883 --enable-chromaprint --enable-frei0r --enable-libx264 --enable-shared
  libavutil      56. 70.100 / 56. 70.100
  libavcodec     58.134.100 / 58.134.100
  libavformat    58. 76.100 / 58. 76.100
  libavdevice    58. 13.100 / 58. 13.100
  libavfilter     7.110.100 /  7.110.100
  libswscale      5.  9.100 /  5.  9.100
  libswresample   3.  9.100 /  3.  9.100
  libpostproc    55.  9.100 / 55.  9.100
[flv @ 0x563706d95fc0] Auto-inserting h264_mp4toannexb bitstream filter
Input #0, concat, from '/storage/32426326/20250609/32426326-20250609-125652-742.all.concat.txt':
  Duration: N/A, start: 0.000000, bitrate: 8323 kb/s
  Stream #0:0: Video: h264 (High), yuv420p(tv, bt709, progressive), 1920x1080 [SAR 1:1 DAR 16:9], 8192 kb/s, 60 fps, 60 tbr, 1k tbn, 120 tbc
  Stream #0:1: Audio: aac (LC), 48000 Hz, stereo, fltp, 131 kb/s
Output #0, flv, to '/storage/32426326/20250609/32426326-20250609-125652-742.all.flv':
  Metadata:
    encoder         : Lavf58.76.100
  Stream #0:0: Video: h264 (High) ([7][0][0][0] / 0x0007), yuv420p(tv, bt709, progressive), 1920x1080 [SAR 1:1 DAR 16:9], q=2-31, 8192 kb/s, 60 fps, 60 tbr, 1k tbn, 1k tbc
  Stream #0:1: Audio: aac (LC) ([10][0][0][0] / 0x000A), 48000 Hz, stereo, fltp, 131 kb/s
Stream mapping:
  Stream #0:0 -> #0:0 (copy)
  Stream #0:1 -> #0:1 (copy)
Press [q] to stop, [?] for help
frame=    1 fps=0.0 q=-1.0 size=       0kB time=00:00:00.00 bitrate=N/A speed=N/A    frame= 3986 fps=0.0 q=-1.0 size=   36864kB time=00:01:06.58 bitrate=4535.7kbits/s speed= 133x    frame= 6318 fps=6315 q=-1.0 size=   74240kB time=00:01:45.44 bitrate=5767.6kbits/s speed= 105x    frame= 8568 fps=5710 q=-1.0 size=  111616kB time=00:02:22.95 bitrate=6396.0kbits/s speed=95.3x    frame=10845 fps=5421 q=-1.0 size=  149248kB time=00:03:00.91 bitrate=6758.3kbits/s speed=90.4x    frame=13036 fps=5211 q=-1.0 size=  185856kB time=00:03:37.41 bitrate=7002.9kbits/s speed=86.9x    frame=15245 fps=5078 q=-1.0 size=  222208kB time=00:04:14.23 bitrate=7160.1kbits/s speed=84.7x    frame=17399 fps=4968 q=-1.0 size=  258048kB time=00:04:50.13 bitrate=7286.0kbits/s speed=82.8x    frame=19614 fps=4900 q=-1.0 size=  294912kB time=00:05:27.04 bitrate=7387.1kbits/s speed=81.7x    frame=21809 fps=4844 q=-1.0 size=  331008kB time=00:06:03.63 bitrate=7457.1kbits/s speed=80.8x    frame=24031 fps=4803 q=-1.0 size=  367872kB time=00:06:40.66 bitrate=7521.6kbits/s speed=80.1x    frame=26213 fps=4763 q=-1.0 size=  403968kB time=00:07:17.03 bitrate=7572.1kbits/s speed=79.4x    frame=28440 fps=4737 q=-1.0 size=  440832kB time=00:07:54.15 bitrate=7616.2kbits/s speed=  79x    frame=30655 fps=4714 q=-1.0 size=  477696kB time=00:08:31.06 bitrate=7657.1kbits/s speed=78.6x    frame=33060 fps=4720 q=-1.0 size=  516096kB time=00:09:11.15 bitrate=7671.0kbits/s speed=78.7x    frame=35036 fps=4669 q=-1.0 size=  548864kB time=00:09:44.08 bitrate=7698.1kbits/s speed=77.8x    frame=37311 fps=4661 q=-1.0 size=  586496kB time=00:10:21.99 bitrate=7724.4kbits/s speed=77.7x    frame=39515 fps=4646 q=-1.0 size=  623104kB time=00:10:58.73 bitrate=7749.0kbits/s speed=77.5x    frame=41755 fps=4637 q=-1.0 size=  660224kB time=00:11:36.06 bitrate=7770.2kbits/s speed=77.3x    frame=43946 fps=4623 q=-1.0 size=  696320kB time=00:12:12.59 bitrate=7786.4kbits/s speed=77.1x    frame=46148 fps=4612 q=-1.0 size=  732928kB time=00:12:49.28 bitrate=7804.9kbits/s speed=76.9x    frame=48375 fps=4605 q=-1.0 size=  769792kB time=00:13:26.40 bitrate=7820.1kbits/s speed=76.8x    frame=50748 fps=4611 q=-1.0 size=  807680kB time=00:14:05.95 bitrate=7821.3kbits/s speed=76.9x    frame=52957 fps=4602 q=-1.0 size=  844288kB time=00:14:42.76 bitrate=7835.0kbits/s speed=76.7x    frame=55243 fps=4601 q=-1.0 size=  882176kB time=00:15:20.86 bitrate=7847.8kbits/s speed=76.7x    frame=57502 fps=4597 q=-1.0 size=  919808kB time=00:15:58.51 bitrate=7861.2kbits/s speed=76.6x    frame=59813 fps=4598 q=-1.0 size=  957952kB time=00:16:37.03 bitrate=7870.9kbits/s speed=76.6x    frame=62063 fps=4595 q=-1.0 size=  995072kB time=00:17:14.54 bitrate=7879.5kbits/s speed=76.6x    frame=64339 fps=4593 q=-1.0 size= 1032704kB time=00:17:52.47 bitrate=7888.2kbits/s speed=76.6x    frame=66564 fps=4588 q=-1.0 size= 1069824kB time=00:18:29.54 bitrate=7898.7kbits/s speed=76.5x    frame=68863 fps=4588 q=-1.0 size= 1107712kB time=00:19:07.86 bitrate=7905.4kbits/s speed=76.5x    frame=71131 fps=4586 q=-1.0 size= 1145344kB time=00:19:45.66 bitrate=7913.4kbits/s speed=76.4x    frame=73402 fps=4585 q=-1.0 size= 1182976kB time=00:20:23.51 bitrate=7920.6kbits/s speed=76.4x    frame=75613 fps=4580 q=-1.0 size= 1219840kB time=00:21:00.36 bitrate=7928.6kbits/s speed=76.3x    frame=77883 fps=4579 q=-1.0 size= 1257216kB time=00:21:38.19 bitrate=7933.4kbits/s speed=76.3x    frame=80099 fps=4574 q=-1.0 size= 1293824kB time=00:22:15.13 bitrate=7938.6kbits/s speed=76.2x    frame=82331 fps=4571 q=-1.0 size= 1330944kB time=00:22:52.33 bitrate=7945.0kbits/s speed=76.2x    frame=84495 fps=4565 q=-1.0 size= 1366528kB time=00:23:28.40 bitrate=7948.4kbits/s speed=76.1x    frame=86906 fps=4571 q=-1.0 size= 1404416kB time=00:24:08.58 bitrate=7942.2kbits/s speed=76.2x    frame=89135 fps=4568 q=-1.0 size= 1441536kB time=00:24:45.73 bitrate=7948.3kbits/s speed=76.1x    frame=91351 fps=4565 q=-1.0 size= 1478400kB time=00:25:22.67 bitrate=7953.8kbits/s speed=76.1x    frame=93601 fps=4563 q=-1.0 size= 1515520kB time=00:26:00.17 bitrate=7957.5kbits/s speed=76.1x    frame=95873 fps=4563 q=-1.0 size= 1553408kB time=00:26:38.03 bitrate=7963.3kbits/s speed=76.1x    frame=98135 fps=4562 q=-1.0 size= 1590528kB time=00:27:15.73 bitrate=7965.6kbits/s speed=  76x    frame=100502 fps=4566 q=-1.0 size= 1628416kB time=00:27:55.18 bitrate=7963.3kbits/s speed=76.1x    frame=102731 fps=4563 q=-1.0 size= 1665536kB time=00:28:32.33 bitrate=7968.1kbits/s speed=76.1x    frame=105027 fps=4564 q=-1.0 size= 1703680kB time=00:29:10.59 bitrate=7972.4kbits/s speed=76.1x    frame=107251 fps=4561 q=-1.0 size= 1740544kB time=00:29:47.67 bitrate=7976.0kbits/s speed=  76x    frame=109532 fps=4561 q=-1.0 size= 1776896kB time=00:30:25.68 bitrate=7973.1kbits/s speed=  76x    frame=111730 fps=4558 q=-1.0 size= 1813248kB time=00:31:02.31 bitrate=7976.1kbits/s speed=  76x    frame=113993 fps=4557 q=-1.0 size= 1850880kB time=00:31:40.03 bitrate=7980.1kbits/s speed=  76x    frame=116221 fps=4555 q=-1.0 size= 1887744kB time=00:32:17.17 bitrate=7983.0kbits/s speed=75.9x    frame=118568 fps=4558 q=-1.0 size= 1926656kB time=00:32:56.28 bitrate=7986.3kbits/s speed=  76x    frame=120768 fps=4555 q=-1.0 size= 1963264kB time=00:33:32.94 bitrate=7989.8kbits/s speed=75.9x    frame=123076 fps=4556 q=-1.0 size= 2001408kB time=00:34:11.41 bitrate=7992.3kbits/s speed=75.9x    frame=125404 fps=4557 q=-1.0 size= 2039808kB time=00:34:50.22 bitrate=7994.4kbits/s speed=  76x    frame=127674 fps=4557 q=-1.0 size= 2077440kB time=00:35:28.04 bitrate=7997.2kbits/s speed=  76x    frame=130010 fps=4559 q=-1.0 size= 2116352kB time=00:36:06.98 bitrate=8000.6kbits/s speed=  76x    frame=132517 fps=4567 q=-1.0 size= 2157824kB time=00:36:48.77 bitrate=8003.0kbits/s speed=76.1x    frame=134930 fps=4571 q=-1.0 size= 2197504kB time=00:37:28.98 bitrate=8004.5kbits/s speed=76.2x    frame=137451 fps=4579 q=-1.0 size= 2239488kB time=00:38:10.99 bitrate=8007.8kbits/s speed=76.3x    frame=139848 fps=4582 q=-1.0 size= 2279168kB time=00:38:50.94 bitrate=8010.0kbits/s speed=76.4x    frame=142169 fps=4583 q=-1.0 size= 2317568kB time=00:39:29.63 bitrate=8012.0kbits/s speed=76.4x    frame=144938 fps=4598 q=-1.0 size= 2360064kB time=00:40:15.78 bitrate=8003.1kbits/s speed=76.6x    frame=148984 fps=4653 q=-1.0 size= 2397696kB time=00:41:23.21 bitrate=7909.9kbits/s speed=77.6x    frame=151927 fps=4672 q=-1.0 size= 2438400kB time=00:42:12.27 bitrate=7888.3kbits/s speed=77.9x    frame=155104 fps=4697 q=-1.0 size= 2480384kB time=00:43:05.22 bitrate=7859.8kbits/s speed=78.3x    frame=157952 fps=4712 q=-1.0 size= 2519808kB time=00:43:52.68 bitrate=7840.8kbits/s speed=78.5x    frame=160515 fps=4718 q=-1.0 size= 2562304kB time=00:44:35.39 bitrate=7845.7kbits/s speed=78.6x    frame=162914 fps=4719 q=-1.0 size= 2601984kB time=00:45:15.38 bitrate=7849.9kbits/s speed=78.7x    frame=165469 fps=4725 q=-1.0 size= 2644224kB time=00:45:57.97 bitrate=7854.1kbits/s speed=78.8x    frame=167975 fps=4729 q=-1.0 size= 2685952kB time=00:46:39.73 bitrate=7859.1kbits/s speed=78.8x    frame=170404 fps=4731 q=-1.0 size= 2725888kB time=00:47:20.21 bitrate=7862.3kbits/s speed=78.8x    frame=172911 fps=4735 q=-1.0 size= 2767360kB time=00:48:02.00 bitrate=7866.1kbits/s speed=78.9x    frame=175391 fps=4738 q=-1.0 size= 2808576kB time=00:48:43.33 bitrate=7870.4kbits/s speed=  79x    frame=177664 fps=4735 q=-1.0 size= 2846208kB time=00:49:21.21 bitrate=7873.8kbits/s speed=78.9x    frame=180155 fps=4738 q=-1.0 size= 2887680kB time=00:50:02.73 bitrate=7878.1kbits/s speed=  79x    frame=182670 fps=4742 q=-1.0 size= 2929408kB time=00:50:44.64 bitrate=7881.9kbits/s speed=  79x    frame=185093 fps=4743 q=-1.0 size= 2969088kB time=00:51:25.03 bitrate=7884.1kbits/s speed=79.1x    frame=187577 fps=4746 q=-1.0 size= 3010304kB time=00:52:06.43 bitrate=7887.7kbits/s speed=79.1x    frame=190248 fps=4753 q=-1.0 size= 3050752kB time=00:52:50.94 bitrate=7881.5kbits/s speed=79.2x    frame=193073 fps=4764 q=-1.0 size= 3090688kB time=00:53:38.03 bitrate=7867.8kbits/s speed=79.4x    frame=195524 fps=4766 q=-1.0 size= 3131136kB time=00:54:18.88 bitrate=7870.9kbits/s speed=79.4x    frame=197885 fps=4765 q=-1.0 size= 3170048kB time=00:54:58.23 bitrate=7873.6kbits/s speed=79.4x    frame=200342 fps=4767 q=-1.0 size= 3210752kB time=00:55:39.18 bitrate=7876.9kbits/s speed=79.5x    frame=202799 fps=4769 q=-1.0 size= 3251456kB time=00:56:20.14 bitrate=7880.1kbits/s speed=79.5x    frame=205221 fps=4770 q=-1.0 size= 3288320kB time=00:57:00.49 bitrate=7875.4kbits/s speed=79.5x    frame=208472 fps=4789 q=-1.0 size= 3330816kB time=00:57:54.68 bitrate=7852.8kbits/s speed=79.8x    frame=210991 fps=4792 q=-1.0 size= 3372032kB time=00:58:36.67 bitrate=7855.1kbits/s speed=79.9x    frame=213101 fps=4786 q=-1.0 size= 3407104kB time=00:59:11.83 bitrate=7858.2kbits/s speed=79.8x    frame=215631 fps=4789 q=-1.0 size= 3448832kB time=00:59:54.00 bitrate=7861.1kbits/s speed=79.8x    frame=217930 fps=4787 q=-1.0 size= 3487232kB time=01:00:32.31 bitrate=7864.8kbits/s speed=79.8x    frame=220213 fps=4784 q=-1.0 size= 3525120kB time=01:01:10.36 bitrate=7867.8kbits/s speed=79.7x    frame=222715 fps=4787 q=-1.0 size= 3566336kB time=01:01:52.06 bitrate=7870.4kbits/s speed=79.8x    frame=225196 fps=4788 q=-1.0 size= 3607808kB time=01:02:33.41 bitrate=7874.2kbits/s speed=79.8x    frame=227640 fps=4789 q=-1.0 size= 3648000kB time=01:03:14.14 bitrate=7876.5kbits/s speed=79.8x    frame=230215 fps=4793 q=-1.0 size= 3690496kB time=01:03:57.06 bitrate=7879.1kbits/s speed=79.9x    frame=232498 fps=4791 q=-1.0 size= 3728384kB time=01:04:35.11 bitrate=7881.8kbits/s speed=79.8x    frame=235060 fps=4794 q=-1.0 size= 3770624kB time=01:05:17.82 bitrate=7884.2kbits/s speed=79.9x    frame=237802 fps=4801 q=-1.0 size= 3810816kB time=01:06:03.51 bitrate=7876.4kbits/s speed=  80x    frame=240747 fps=4812 q=-1.0 size= 3848704kB time=01:06:52.61 bitrate=7857.4kbits/s speed=80.2x    frame=243183 fps=4812 q=-1.0 size= 3889152kB time=01:07:33.19 bitrate=7860.4kbits/s speed=80.2x    frame=245558 fps=4812 q=-1.0 size= 3928320kB time=01:08:12.78 bitrate=7862.8kbits/s speed=80.2x    frame=247877 fps=4810 q=-1.0 size= 3966464kB time=01:08:51.43 bitrate=7864.9kbits/s speed=80.2x    frame=250391 fps=4812 q=-1.0 size= 4008192kB time=01:09:33.33 bitrate=7867.8kbits/s speed=80.2x    frame=252772 fps=4812 q=-1.0 size= 4047616kB time=01:10:13.01 bitrate=7870.4kbits/s speed=80.2x    frame=255264 fps=4813 q=-1.0 size= 4088832kB time=01:10:54.55 bitrate=7872.9kbits/s speed=80.2x    frame=257630 fps=4812 q=-1.0 size= 4128000kB time=01:11:33.98 bitrate=7875.3kbits/s speed=80.2x    frame=259947 fps=4811 q=-1.0 size= 4166400kB time=01:12:12.59 bitrate=7877.8kbits/s speed=80.2x    frame=262468 fps=4813 q=-1.0 size= 4208128kB time=01:12:54.61 bitrate=7880.2kbits/s speed=80.2x    frame=264956 fps=4814 q=-1.0 size= 4249344kB time=01:13:36.08 bitrate=7882.7kbits/s speed=80.2x    frame=267259 fps=4813 q=-1.0 size= 4287488kB time=01:14:14.46 bitrate=7884.9kbits/s speed=80.2x    frame=269693 fps=4813 q=-1.0 size= 4327680kB time=01:14:55.04 bitrate=7887.0kbits/s speed=80.2x    frame=272028 fps=4812 q=-1.0 size= 4366336kB time=01:15:33.95 bitrate=7889.1kbits/s speed=80.2x    frame=275008 fps=4822 q=-1.0 size= 4407808kB time=01:16:23.62 bitrate=7877.8kbits/s speed=80.4x    frame=278006 fps=4832 q=-1.0 size= 4450048kB time=01:17:13.58 bitrate=7867.5kbits/s speed=80.5x    frame=280215 fps=4828 q=-1.0 size= 4486656kB time=01:17:50.40 bitrate=7869.7kbits/s speed=80.5x    frame=282734 fps=4830 q=-1.0 size= 4528384kB time=01:18:32.38 bitrate=7872.1kbits/s speed=80.5x    frame=285348 fps=4833 q=-1.0 size= 4571904kB time=01:19:15.94 bitrate=7875.0kbits/s speed=80.6x    frame=287584 fps=4830 q=-1.0 size= 4608768kB time=01:19:53.22 bitrate=7876.8kbits/s speed=80.5x    frame=290221 fps=4834 q=-1.0 size= 4652032kB time=01:20:37.16 bitrate=7878.5kbits/s speed=80.6x    frame=292648 fps=4834 q=-1.0 size= 4692480kB time=01:21:17.61 bitrate=7881.1kbits/s speed=80.6x    frame=295110 fps=4835 q=-1.0 size= 4733696kB time=01:21:58.64 bitrate=7884.0kbits/s speed=80.6x    frame=298048 fps=4843 q=-1.0 size= 4777472kB time=01:22:47.61 bitrate=7878.4kbits/s speed=80.7x    frame=300740 fps=4848 q=-1.0 size= 4816384kB time=01:23:32.48 bitrate=7871.5kbits/s speed=80.8x    frame=303311 fps=4850 q=-1.0 size= 4859136kB time=01:24:15.34 bitrate=7874.1kbits/s speed=80.8x    frame=306106 fps=4856 q=-1.0 size= 4902912kB time=01:25:01.91 bitrate=7872.5kbits/s speed=80.9x    frame=308759 fps=4859 q=-1.0 size= 4943872kB time=01:25:46.13 bitrate=7870.0kbits/s speed=  81x    frame=311786 fps=4869 q=-1.0 size= 4986112kB time=01:26:36.59 bitrate=7860.2kbits/s speed=81.1x    frame=314246 fps=4869 q=-1.0 size= 5026816kB time=01:27:17.58 bitrate=7862.3kbits/s speed=81.2x    frame=316554 fps=4867 q=-1.0 size= 5064960kB time=01:27:56.05 bitrate=7864.2kbits/s speed=81.1x    frame=319018 fps=4868 q=-1.0 size= 5105920kB time=01:28:37.12 bitrate=7866.6kbits/s speed=81.1x    frame=321258 fps=4865 q=-1.0 size= 5142784kB time=01:29:14.44 bitrate=7868.2kbits/s speed=81.1x    frame=323579 fps=4863 q=-1.0 size= 5181440kB time=01:29:53.13 bitrate=7870.4kbits/s speed=81.1x    frame=326106 fps=4864 q=-1.0 size= 5223168kB time=01:30:35.24 bitrate=7872.4kbits/s speed=81.1x    frame=328439 fps=4863 q=-1.0 size= 5261824kB time=01:31:14.13 bitrate=7874.3kbits/s speed=81.1x    frame=330966 fps=4864 q=-1.0 size= 5303552kB time=01:31:56.24 bitrate=7876.1kbits/s speed=81.1x    frame=333476 fps=4865 q=-1.0 size= 5345280kB time=01:32:38.08 bitrate=7878.4kbits/s speed=81.1x    frame=335772 fps=4863 q=-1.0 size= 5383424kB time=01:33:16.35 bitrate=7880.3kbits/s speed=81.1x    frame=338293 fps=4865 q=-1.0 size= 5425152kB time=01:33:58.36 bitrate=7882.2kbits/s speed=81.1x    frame=340715 fps=4865 q=-1.0 size= 5465088kB time=01:34:38.74 bitrate=7883.8kbits/s speed=81.1x    frame=343387 fps=4868 q=-1.0 size= 5503744kB time=01:35:23.26 bitrate=7877.8kbits/s speed=81.1x    frame=346618 fps=4879 q=-1.0 size= 5546496kB time=01:36:17.11 bitrate=7865.0kbits/s speed=81.3x    frame=349075 fps=4879 q=-1.0 size= 5587200kB time=01:36:58.06 bitrate=7866.9kbits/s speed=81.3x    frame=351647 fps=4881 q=-1.0 size= 5629696kB time=01:37:40.93 bitrate=7868.8kbits/s speed=81.4x    frame=354131 fps=4882 q=-1.0 size= 5670912kB time=01:38:22.33 bitrate=7870.8kbits/s speed=81.4x    frame=356439 fps=4880 q=-1.0 size= 5708800kB time=01:39:00.80 bitrate=7872.1kbits/s speed=81.3x    frame=358985 fps=4881 q=-1.0 size= 5751040kB time=01:39:43.23 bitrate=7874.1kbits/s speed=81.4x    frame=361599 fps=4884 q=-1.0 size= 5794304kB time=01:40:26.79 bitrate=7876.0kbits/s speed=81.4x    frame=364145 fps=4885 q=-1.0 size= 5830912kB time=01:41:09.23 bitrate=7870.3kbits/s speed=81.4x    frame=367531 fps=4898 q=-1.0 size= 5874688kB time=01:42:05.66 bitrate=7856.4kbits/s speed=81.6x    frame=370029 fps=4898 q=-1.0 size= 5915648kB time=01:42:47.30 bitrate=7857.7kbits/s speed=81.6x    frame=372580 fps=4900 q=-1.0 size= 5957888kB time=01:43:29.81 bitrate=7859.7kbits/s speed=81.7x    frame=375038 fps=4900 q=-1.0 size= 5998848kB time=01:44:10.78 bitrate=7861.8kbits/s speed=81.7x    frame=377307 fps=4897 q=-1.0 size= 6036480kB time=01:44:48.59 bitrate=7863.6kbits/s speed=81.6x    frame=379881 fps=4899 q=-1.0 size= 6078976kB time=01:45:31.49 bitrate=7865.3kbits/s speed=81.6x    frame=382383 fps=4899 q=-1.0 size= 6120704kB time=01:46:13.19 bitrate=7867.4kbits/s speed=81.7x    frame=384634 fps=4897 q=-1.0 size= 6157568kB time=01:46:50.71 bitrate=7868.5kbits/s speed=81.6x    frame=387578 fps=4903 q=-1.0 size= 6201088kB time=01:47:39.78 bitrate=7863.9kbits/s speed=81.7x    frame=390402 fps=4908 q=-1.0 size= 6241792kB time=01:48:26.84 bitrate=7858.3kbits/s speed=81.8x    frame=392777 fps=4907 q=-1.0 size= 6280960kB time=01:49:06.43 bitrate=7859.8kbits/s speed=81.8x    frame=395338 fps=4908 q=-1.0 size= 6323200kB time=01:49:49.12 bitrate=7861.4kbits/s speed=81.8x    frame=397711 fps=4907 q=-1.0 size= 6362368kB time=01:50:28.67 bitrate=7862.9kbits/s speed=81.8x    frame=400078 fps=4906 q=-1.0 size= 6401792kB time=01:51:08.11 bitrate=7864.8kbits/s speed=81.8x    frame=402679 fps=4908 q=-1.0 size= 6445056kB time=01:51:51.46 bitrate=7866.8kbits/s speed=81.8x    frame=404923 fps=4905 q=-1.0 size= 6482432kB time=01:52:28.86 bitrate=7868.6kbits/s speed=81.8x    frame=407421 fps=4906 q=-1.0 size= 6523392kB time=01:53:10.51 bitrate=7869.8kbits/s speed=81.8x    frame=410290 fps=4911 q=-1.0 size= 6565888kB time=01:53:58.31 bitrate=7865.6kbits/s speed=81.8x    frame=412747 fps=4911 q=-1.0 size= 6604544kB time=01:54:39.27 bitrate=7864.8kbits/s speed=81.8x    frame=415545 fps=4915 q=-1.0 size= 6646016kB time=01:55:25.89 bitrate=7861.0kbits/s speed=81.9x    frame=417942 fps=4914 q=-1.0 size= 6685696kB time=01:56:05.84 bitrate=7862.5kbits/s speed=81.9x    frame=420573 fps=4916 q=-1.0 size= 6725376kB time=01:56:49.69 bitrate=7859.7kbits/s speed=81.9x    frame=423547 fps=4922 q=-1.0 size= 6767872kB time=01:57:39.26 bitrate=7853.8kbits/s speed=  82x    frame=425998 fps=4922 q=-1.0 size= 6808320kB time=01:58:20.11 bitrate=7855.3kbits/s speed=  82x    frame=428526 fps=4923 q=-1.0 size= 6850048kB time=01:59:02.25 bitrate=7856.8kbits/s speed=  82x    frame=431338 fps=4927 q=-1.0 size= 6893056kB time=01:59:49.12 bitrate=7854.6kbits/s speed=82.1x    frame=433656 fps=4925 q=-1.0 size= 6931200kB time=02:00:27.75 bitrate=7855.9kbits/s speed=82.1x    frame=436675 fps=4931 q=-1.0 size= 6973952kB time=02:01:18.06 bitrate=7849.7kbits/s speed=82.2x    frame=439201 fps=4932 q=-1.0 size= 7015424kB time=02:02:00.17 bitrate=7851.0kbits/s speed=82.2x    frame=441655 fps=4932 q=-1.0 size= 7056128kB time=02:02:41.07 bitrate=7852.6kbits/s speed=82.2x    frame=444323 fps=4934 q=-1.0 size= 7100160kB time=02:03:25.53 bitrate=7854.2kbits/s speed=82.2x    frame=446811 fps=4934 q=-1.0 size= 7141376kB time=02:04:06.99 bitrate=7855.8kbits/s speed=82.2x    frame=449398 fps=4936 q=-1.0 size= 7184384kB time=02:04:50.11 bitrate=7857.6kbits/s speed=82.3x    frame=451953 fps=4937 q=-1.0 size= 7226112kB time=02:05:32.69 bitrate=7858.6kbits/s speed=82.3x    frame=454269 fps=4935 q=-1.0 size= 7264768kB time=02:06:11.31 bitrate=7860.3kbits/s speed=82.2x    frame=456861 fps=4936 q=-1.0 size= 7308032kB time=02:06:54.51 bitrate=7862.3kbits/s speed=82.3x    frame=460143 fps=4945 q=-1.0 size= 7352576kB time=02:07:49.20 bitrate=7853.8kbits/s speed=82.4x    frame=462910 fps=4948 q=-1.0 size= 7390720kB time=02:08:35.31 bitrate=7847.4kbits/s speed=82.5x    frame=465576 fps=4950 q=-1.0 size= 7434496kB time=02:09:19.74 bitrate=7848.6kbits/s speed=82.5x    frame=468115 fps=4951 q=-1.0 size= 7476736kB time=02:10:02.06 bitrate=7850.4kbits/s speed=82.5x    frame=470772 fps=4953 q=-1.0 size= 7520768kB time=02:10:46.36 bitrate=7852.1kbits/s speed=82.5x    frame=473357 fps=4954 q=-1.0 size= 7563264kB time=02:11:29.43 bitrate=7853.3kbits/s speed=82.6x    frame=475960 fps=4955 q=-1.0 size= 7606528kB time=02:12:12.82 bitrate=7855.0kbits/s speed=82.6x    frame=478564 fps=4956 q=-1.0 size= 7649792kB time=02:12:56.21 bitrate=7856.7kbits/s speed=82.6x    frame=481169 fps=4958 q=-1.0 size= 7692800kB time=02:13:39.63 bitrate=7858.1kbits/s speed=82.6x    frame=483461 fps=4956 q=-1.0 size= 7730944kB time=02:14:17.83 bitrate=7859.7kbits/s speed=82.6x    frame=486155 fps=4958 q=-1.0 size= 7775232kB time=02:15:02.74 bitrate=7860.9kbits/s speed=82.6x    frame=488731 fps=4959 q=-1.0 size= 7817984kB time=02:15:45.66 bitrate=7862.5kbits/s speed=82.6x    frame=491143 fps=4958 q=-1.0 size= 7857920kB time=02:16:25.86 bitrate=7863.8kbits/s speed=82.6x    frame=493700 fps=4959 q=-1.0 size= 7900416kB time=02:17:08.48 bitrate=7865.4kbits/s speed=82.7x    frame=496533 fps=4962 q=-1.0 size= 7942400kB time=02:17:55.69 bitrate=7862.1kbits/s speed=82.7x    frame=499487 fps=4967 q=-1.0 size= 7984128kB time=02:18:44.93 bitrate=7856.6kbits/s speed=82.8x    frame=502174 fps=4969 q=-1.0 size= 8028672kB time=02:19:29.71 bitrate=7858.2kbits/s speed=82.8x    frame=504500 fps=4968 q=-1.0 size= 8067072kB time=02:20:08.48 bitrate=7859.4kbits/s speed=82.8x    frame=507019 fps=4968 q=-1.0 size= 8108800kB time=02:20:50.46 bitrate=7860.8kbits/s speed=82.8x    frame=509623 fps=4969 q=-1.0 size= 8151808kB time=02:21:33.87 bitrate=7862.1kbits/s speed=82.8x    frame=512197 fps=4970 q=-1.0 size= 8194560kB time=02:22:16.76 bitrate=7863.6kbits/s speed=82.8x    frame=514723 fps=4970 q=-1.0 size= 8236288kB time=02:22:58.86 bitrate=7864.9kbits/s speed=82.8x    frame=517188 fps=4970 q=-1.0 size= 8276992kB time=02:23:39.94 bitrate=7866.1kbits/s speed=82.8x    frame=519654 fps=4970 q=-1.0 size= 8317696kB time=02:24:21.04 bitrate=7867.2kbits/s speed=82.8x    frame=522340 fps=4972 q=-1.0 size= 8362240kB time=02:25:05.81 bitrate=7868.7kbits/s speed=82.9x    frame=525027 fps=4974 q=-1.0 size= 8402176kB time=02:25:50.59 bitrate=7865.8kbits/s speed=82.9x    frame=527972 fps=4978 q=-1.0 size= 8445184kB time=02:26:39.68 bitrate=7862.0kbits/s speed=  83x    frame=530534 fps=4979 q=-1.0 size= 8487680kB time=02:27:22.39 bitrate=7863.4kbits/s speed=  83x    frame=532878 fps=4977 q=-1.0 size= 8526336kB time=02:28:01.44 bitrate=7864.5kbits/s speed=  83x    frame=535296 fps=4977 q=-1.0 size= 8566528kB time=02:28:41.74 bitrate=7865.8kbits/s speed=82.9x    frame=537878 fps=4977 q=-1.0 size= 8609280kB time=02:29:24.78 bitrate=7867.1kbits/s speed=  83x    frame=540164 fps=4976 q=-1.0 size= 8646912kB time=02:30:02.88 bitrate=7868.1kbits/s speed=82.9x    frame=542812 fps=4977 q=-1.0 size= 8690944kB time=02:30:47.01 bitrate=7869.6kbits/s speed=  83x    frame=545277 fps=4977 q=-1.0 size= 8731904kB time=02:31:28.11 bitrate=7870.9kbits/s speed=82.9x    frame=547598 fps=4975 q=-1.0 size= 8770048kB time=02:32:06.78 bitrate=7871.8kbits/s speed=82.9x    frame=550188 fps=4976 q=-1.0 size= 8813056kB time=02:32:49.94 bitrate=7873.2kbits/s speed=82.9x    frame=552622 fps=4976 q=-1.0 size= 8853248kB time=02:33:30.52 bitrate=7874.2kbits/s speed=82.9x    frame=555250 fps=4977 q=-1.0 size= 8896768kB time=02:34:14.31 bitrate=7875.5kbits/s speed=  83x    frame=557895 fps=4978 q=-1.0 size= 8940544kB time=02:34:58.39 bitrate=7876.7kbits/s speed=  83x    frame=560534 fps=4980 q=-1.0 size= 8979200kB time=02:35:42.38 bitrate=7873.5kbits/s speed=  83x    frame=563757 fps=4986 q=-1.0 size= 9023488kB time=02:36:36.09 bitrate=7867.1kbits/s speed=83.1x    frame=566290 fps=4986 q=-1.0 size= 9065728kB time=02:37:18.31 bitrate=7868.6kbits/s speed=83.1x    frame=568696 fps=4986 q=-1.0 size= 9105152kB time=02:37:58.42 bitrate=7869.4kbits/s speed=83.1x    frame=571191 fps=4986 q=-1.0 size= 9146624kB time=02:38:39.99 bitrate=7870.7kbits/s speed=83.1x    frame=573592 fps=4985 q=-1.0 size= 9186304kB time=02:39:20.02 bitrate=7871.8kbits/s speed=83.1x    frame=575999 fps=4984 q=-1.0 size= 9225984kB time=02:40:00.13 bitrate=7872.7kbits/s speed=83.1x    frame=578433 fps=4984 q=-1.0 size= 9266688kB time=02:40:40.70 bitrate=7874.2kbits/s speed=83.1x    frame=580502 fps=4980 q=-1.0 size= 9300736kB time=02:41:15.18 bitrate=7875.0kbits/s speed=  83x    frame=582965 fps=4980 q=-1.0 size= 9341952kB time=02:41:56.23 bitrate=7876.4kbits/s speed=  83x    frame=585476 fps=4980 q=-1.0 size= 9383168kB time=02:42:38.08 bitrate=7877.3kbits/s speed=  83x    frame=587657 fps=4977 q=-1.0 size= 9419264kB time=02:43:14.43 bitrate=7878.2kbits/s speed=  83x    frame=590350 fps=4979 q=-1.0 size= 9459968kB time=02:43:59.32 bitrate=7876.2kbits/s speed=  83x    frame=592850 fps=4979 q=-1.0 size= 9501440kB time=02:44:40.98 bitrate=7877.3kbits/s speed=  83x    frame=595615 fps=4981 q=-1.0 size= 9540864kB time=02:45:27.06 bitrate=7873.3kbits/s speed=  83x    frame=598168 fps=4982 q=-1.0 size= 9583616kB time=02:46:09.62 bitrate=7874.8kbits/s speed=  83x    frame=600497 fps=4980 q=-1.0 size= 9621504kB time=02:46:48.43 bitrate=7875.3kbits/s speed=  83x    frame=603429 fps=4984 q=-1.0 size= 9664512kB time=02:47:37.30 bitrate=7872.1kbits/s speed=83.1x    frame=606743 fps=4991 q=-1.0 size= 9706752kB time=02:48:32.53 bitrate=7863.3kbits/s speed=83.2x    frame=609011 fps=4989 q=-1.0 size= 9744384kB time=02:49:10.34 bitrate=7864.4kbits/s speed=83.2x    frame=611464 fps=4989 q=-1.0 size= 9785088kB time=02:49:51.21 bitrate=7865.5kbits/s speed=83.1x    frame=613620 fps=4986 q=-1.0 size= 9820928kB time=02:50:27.16 bitrate=7866.6kbits/s speed=83.1x    frame=616027 fps=4985 q=-1.0 size= 9860864kB time=02:51:07.26 bitrate=7867.7kbits/s speed=83.1x    frame=618539 fps=4985 q=-1.0 size= 9902080kB time=02:51:49.14 bitrate=7868.5kbits/s speed=83.1x    frame=620967 fps=4985 q=-1.0 size= 9942528kB time=02:52:29.59 bitrate=7869.8kbits/s speed=83.1x    frame=623521 fps=4985 q=-1.0 size= 9984768kB time=02:53:12.16 bitrate=7870.9kbits/s speed=83.1x    frame=625984 fps=4985 q=-1.0 size=10025472kB time=02:53:53.21 bitrate=7871.8kbits/s speed=83.1x    frame=628540 fps=4985 q=-1.0 size=10067968kB time=02:54:35.81 bitrate=7873.1kbits/s speed=83.1x    frame=631017 fps=4985 q=-1.0 size=10108928kB time=02:55:17.10 bitrate=7874.1kbits/s speed=83.1x    frame=633289 fps=4984 q=-1.0 size=10146560kB time=02:55:54.96 bitrate=7875.0kbits/s speed=83.1x    frame=635794 fps=4984 q=-1.0 size=10187776kB time=02:56:36.71 bitrate=7875.9kbits/s speed=83.1x    frame=638610 fps=4986 q=-1.0 size=10230784kB time=02:57:23.64 bitrate=7874.2kbits/s speed=83.1x    frame=641399 fps=4989 q=-1.0 size=10271488kB time=02:58:10.13 bitrate=7871.2kbits/s speed=83.1x    frame=643907 fps=4989 q=-1.0 size=10312704kB time=02:58:51.93 bitrate=7872.0kbits/s speed=83.1x    frame=646298 fps=4988 q=-1.0 size=10352384kB time=02:59:31.78 bitrate=7873.0kbits/s speed=83.1x    frame=648599 fps=4986 q=-1.0 size=10390528kB time=03:00:10.13 bitrate=7874.0kbits/s speed=83.1x    frame=651095 fps=4986 q=-1.0 size=10431744kB time=03:00:51.73 bitrate=7874.9kbits/s speed=83.1x    frame=653390 fps=4985 q=-1.0 size=10469888kB time=03:01:29.98 bitrate=7876.0kbits/s speed=83.1x    frame=655444 fps=4981 q=-1.0 size=10503936kB time=03:02:04.22 bitrate=7876.8kbits/s speed=  83x    frame=657713 fps=4980 q=-1.0 size=10541568kB time=03:02:42.03 bitrate=7877.8kbits/s speed=  83x    frame=659983 fps=4978 q=-1.0 size=10579200kB time=03:03:19.86 bitrate=7878.7kbits/s speed=  83x    frame=662076 fps=4975 q=-1.0 size=10614016kB time=03:03:54.75 bitrate=7879.7kbits/s speed=82.9x    frame=664431 fps=4974 q=-1.0 size=10652672kB time=03:04:34.00 bitrate=7880.3kbits/s speed=82.9x    frame=666890 fps=4974 q=-1.0 size=10693632kB time=03:05:14.99 bitrate=7881.4kbits/s speed=82.9x    frame=669377 fps=4974 q=-1.0 size=10734592kB time=03:05:56.43 bitrate=7882.3kbits/s speed=82.9x    frame=671786 fps=4973 q=-1.0 size=10774272kB time=03:06:36.59 bitrate=7883.0kbits/s speed=82.9x    frame=674373 fps=4974 q=-1.0 size=10812928kB time=03:07:19.69 bitrate=7881.0kbits/s speed=82.9x    frame=677664 fps=4980 q=-1.0 size=10855680kB time=03:08:14.55 bitrate=7873.7kbits/s speed=  83x    frame=680027 fps=4979 q=-1.0 size=10894336kB time=03:08:53.93 bitrate=7874.3kbits/s speed=  83x    frame=682523 fps=4979 q=-1.0 size=10935808kB time=03:09:35.53 bitrate=7875.3kbits/s speed=  83x    frame=684957 fps=4979 q=-1.0 size=10976000kB time=03:10:16.11 bitrate=7876.2kbits/s speed=  83x    frame=687174 fps=4977 q=-1.0 size=11012864kB time=03:10:53.04 bitrate=7877.2kbits/s speed=82.9x    frame=689661 fps=4977 q=-1.0 size=11053824kB time=03:11:34.51 bitrate=7877.9kbits/s speed=82.9x    frame=692115 fps=4976 q=-1.0 size=11094784kB time=03:12:15.40 bitrate=7879.1kbits/s speed=82.9x    frame=694337 fps=4974 q=-1.0 size=11131648kB time=03:12:52.43 bitrate=7880.0kbits/s speed=82.9x    frame=696887 fps=4975 q=-1.0 size=11173632kB time=03:13:34.93 bitrate=7880.7kbits/s speed=82.9x    frame=699236 fps=4974 q=-1.0 size=11212800kB time=03:14:14.08 bitrate=7881.8kbits/s speed=82.9x    frame=701537 fps=4973 q=-1.0 size=11250688kB time=03:14:52.44 bitrate=7882.5kbits/s speed=82.9x    frame=704015 fps=4973 q=-1.0 size=11291648kB time=03:15:33.73 bitrate=7883.4kbits/s speed=82.9x    frame=706343 fps=4971 q=-1.0 size=11330304kB time=03:16:12.53 bitrate=7884.3kbits/s speed=82.9x    frame=709219 fps=4974 q=-1.0 size=11372288kB time=03:17:00.46 bitrate=7881.4kbits/s speed=82.9x    frame=712183 fps=4977 q=-1.0 size=11415296kB time=03:17:49.86 bitrate=7878.3kbits/s speed=  83x    frame=714572 fps=4977 q=-1.0 size=11454976kB time=03:18:29.68 bitrate=7879.2kbits/s speed=82.9x    frame=717074 fps=4977 q=-1.0 size=11496192kB time=03:19:11.38 bitrate=7880.0kbits/s speed=82.9x    frame=719529 fps=4976 q=-1.0 size=11536896kB time=03:19:52.29 bitrate=7880.9kbits/s speed=82.9x    frame=721877 fps=4976 q=-1.0 size=11575808kB time=03:20:31.43 bitrate=7881.8kbits/s speed=82.9x    frame=724337 fps=4975 q=-1.0 size=11616512kB time=03:21:12.43 bitrate=7882.6kbits/s speed=82.9x    frame=726479 fps=4973 q=-1.0 size=11652096kB time=03:21:48.13 bitrate=7883.5kbits/s speed=82.9x    frame=728724 fps=4971 q=-1.0 size=11689216kB time=03:22:25.56 bitrate=7884.2kbits/s speed=82.9x    frame=731063 fps=4970 q=-1.0 size=11727872kB time=03:23:04.53 bitrate=7885.0kbits/s speed=82.8x    frame=733368 fps=4969 q=-1.0 size=11766016kB time=03:23:42.95 bitrate=7885.8kbits/s speed=82.8x    frame=735788 fps=4969 q=-1.0 size=11806208kB time=03:24:23.28 bitrate=7886.7kbits/s speed=82.8x    frame=738148 fps=4968 q=-1.0 size=11845120kB time=03:25:02.61 bitrate=7887.4kbits/s speed=82.8x    frame=740520 fps=4967 q=-1.0 size=11884288kB time=03:25:42.14 bitrate=7888.1kbits/s speed=82.8x    frame=743419 fps=4970 q=-1.0 size=11928320kB time=03:26:30.46 bitrate=7886.5kbits/s speed=82.8x    frame=746311 fps=4972 q=-1.0 size=11969280kB time=03:27:18.66 bitrate=7882.9kbits/s speed=82.9x    frame=748779 fps=4972 q=-1.0 size=12010240kB time=03:27:59.79 bitrate=7883.8kbits/s speed=82.9x    frame=751444 fps=4973 q=-1.0 size=12054016kB time=03:28:44.21 bitrate=7884.4kbits/s speed=82.9x    frame=753763 fps=4972 q=-1.0 size=12092416kB time=03:29:22.86 bitrate=7885.2kbits/s speed=82.9x    frame=756273 fps=4973 q=-1.0 size=12134400kB time=03:30:04.69 bitrate=7886.3kbits/s speed=82.9x    frame=758858 fps=4973 q=-1.0 size=12177152kB time=03:30:47.78 bitrate=7887.2kbits/s speed=82.9x    frame=761137 fps=4972 q=-1.0 size=12214784kB time=03:31:25.76 bitrate=7887.9kbits/s speed=82.9x    frame=763671 fps=4972 q=-1.0 size=12256768kB time=03:32:07.99 bitrate=7888.7kbits/s speed=82.9x    frame=766131 fps=4972 q=-1.0 size=12297728kB time=03:32:49.00 bitrate=7889.6kbits/s speed=82.9x    frame=768888 fps=4974 q=-1.0 size=12343040kB time=03:33:34.94 bitrate=7890.3kbits/s speed=82.9x    frame=772023 fps=4978 q=-1.0 size=12394752kB time=03:34:27.20 bitrate=7891.2kbits/s speed=  83x    frame=774952 fps=4981 q=-1.0 size=12443392kB time=03:35:16.01 bitrate=7892.2kbits/s speed=  83x    frame=778348 fps=4986 q=-1.0 size=12495872kB time=03:36:12.61 bitrate=7890.9kbits/s speed=83.1x    frame=781586 fps=4991 q=-1.0 size=12539904kB time=03:37:06.58 bitrate=7885.9kbits/s speed=83.2x    frame=783816 fps=4990 q=-1.0 size=12576768kB time=03:37:43.74 bitrate=7886.6kbits/s speed=83.2x    frame=786404 fps=4990 q=-1.0 size=12619520kB time=03:38:26.88 bitrate=7887.4kbits/s speed=83.2x    frame=788978 fps=4991 q=-1.0 size=12662016kB time=03:39:09.78 bitrate=7888.1kbits/s speed=83.2x    frame=791429 fps=4990 q=-1.0 size=12702720kB time=03:39:50.63 bitrate=7889.0kbits/s speed=83.2x    frame=794085 fps=4991 q=-1.0 size=12746752kB time=03:40:34.90 bitrate=7889.8kbits/s speed=83.2x    frame=796503 fps=4991 q=-1.0 size=12786944kB time=03:41:15.19 bitrate=7890.7kbits/s speed=83.2x    frame=798982 fps=4991 q=-1.0 size=12827904kB time=03:41:56.51 bitrate=7891.4kbits/s speed=83.2x    frame=802564 fps=4997 q=-1.0 size=12871424kB time=03:42:56.21 bitrate=7882.9kbits/s speed=83.3x    frame=805002 fps=4997 q=-1.0 size=12911616kB time=03:43:36.85 bitrate=7883.5kbits/s speed=83.3x    frame=807627 fps=4998 q=-1.0 size=12955136kB time=03:44:20.59 bitrate=7884.4kbits/s speed=83.3x    frame=810333 fps=4999 q=-1.0 size=12999936kB time=03:45:05.71 bitrate=7885.2kbits/s speed=83.3x    frame=812869 fps=4999 q=-1.0 size=13041920kB time=03:45:47.96 bitrate=7886.0kbits/s speed=83.3x    frame=815532 fps=5000 q=-1.0 size=13086208kB time=03:46:32.34 bitrate=7887.0kbits/s speed=83.3x    frame=818036 fps=5000 q=-1.0 size=13127424kB time=03:47:14.09 bitrate=7887.6kbits/s speed=83.3x    frame=820535 fps=5000 q=-1.0 size=13168896kB time=03:47:55.73 bitrate=7888.4kbits/s speed=83.3x    frame=823059 fps=5000 q=-1.0 size=13210880kB time=03:48:37.80 bitrate=7889.3kbits/s speed=83.3x    frame=825526 fps=5000 q=-1.0 size=13251584kB time=03:49:18.91 bitrate=7889.9kbits/s speed=83.3x    frame=828178 fps=5001 q=-1.0 size=13295360kB time=03:50:03.11 bitrate=7890.7kbits/s speed=83.4x    frame=830797 fps=5002 q=-1.0 size=13338880kB time=03:50:46.76 bitrate=7891.5kbits/s speed=83.4x    frame=833155 fps=5001 q=-1.0 size=13377536kB time=03:51:26.06 bitrate=7892.0kbits/s speed=83.4x    frame=835778 fps=5002 q=-1.0 size=13421312kB time=03:52:09.78 bitrate=7893.0kbits/s speed=83.4x    frame=838281 fps=5002 q=-1.0 size=13461504kB time=03:52:51.50 bitrate=7893.0kbits/s speed=83.4x    frame=841269 fps=5005 q=-1.0 size=13502976kB time=03:53:41.29 bitrate=7889.2kbits/s speed=83.4x    frame=844338 fps=5008 q=-1.0 size=13545984kB time=03:54:32.45 bitrate=7885.5kbits/s speed=83.5x    frame=846647 fps=5007 q=-1.0 size=13584128kB time=03:55:10.93 bitrate=7886.2kbits/s speed=83.4x    frame=849115 fps=5007 q=-1.0 size=13625088kB time=03:55:52.06 bitrate=7887.0kbits/s speed=83.4x    frame=851780 fps=5008 q=-1.0 size=13669120kB time=03:56:36.48 bitrate=7887.7kbits/s speed=83.5x    frame=854158 fps=5007 q=-1.0 size=13708288kB time=03:57:16.12 bitrate=7888.3kbits/s speed=83.4x    frame=856773 fps=5007 q=-1.0 size=13751808kB time=03:57:59.69 bitrate=7889.2kbits/s speed=83.5x    frame=859345 fps=5008 q=-1.0 size=13794304kB time=03:58:42.56 bitrate=7889.9kbits/s speed=83.5x    frame=861819 fps=5008 q=-1.0 size=13835520kB time=03:59:23.80 bitrate=7890.7kbits/s speed=83.5x    frame=864445 fps=5008 q=-1.0 size=13879040kB time=04:00:07.56 bitrate=7891.5kbits/s speed=83.5x    frame=866900 fps=5008 q=-1.0 size=13919488kB time=04:00:48.48 bitrate=7892.1kbits/s speed=83.5x    frame=869358 fps=5008 q=-1.0 size=13960448kB time=04:01:29.44 bitrate=7892.9kbits/s speed=83.5x    frame=871882 fps=5008 q=-1.0 size=14001920kB time=04:02:11.51 bitrate=7893.4kbits/s speed=83.5x    frame=874398 fps=5008 q=-1.0 size=14038528kB time=04:02:53.44 bitrate=7891.3kbits/s speed=83.5x    frame=877368 fps=5011 q=-1.0 size=14081280kB time=04:03:42.94 bitrate=7888.5kbits/s speed=83.5x    frame=879950 fps=5011 q=-1.0 size=14122496kB time=04:04:25.98 bitrate=7888.4kbits/s speed=83.5x    frame=882319 fps=5010 q=-1.0 size=14161664kB time=04:05:05.47 bitrate=7889.1kbits/s speed=83.5x    frame=884818 fps=5010 q=-1.0 size=14202880kB time=04:05:47.11 bitrate=7889.7kbits/s speed=83.5x    frame=887191 fps=5009 q=-1.0 size=14242048kB time=04:06:26.67 bitrate=7890.3kbits/s speed=83.5x    frame=889562 fps=5009 q=-1.0 size=14281472kB time=04:07:06.18 bitrate=7891.0kbits/s speed=83.5x    frame=892084 fps=5009 q=-1.0 size=14323200kB time=04:07:48.22 bitrate=7891.7kbits/s speed=83.5x    frame=894299 fps=5007 q=-1.0 size=14360064kB time=04:08:25.13 bitrate=7892.4kbits/s speed=83.5x    frame=896806 fps=5007 q=-1.0 size=14401280kB time=04:09:06.92 bitrate=7892.9kbits/s speed=83.5x    frame=899278 fps=5007 q=-1.0 size=14442496kB time=04:09:48.11 bitrate=7893.8kbits/s speed=83.5x    frame=901549 fps=5006 q=-1.0 size=14480128kB time=04:10:25.96 bitrate=7894.4kbits/s speed=83.4x    frame=904163 fps=5006 q=-1.0 size=14523392kB time=04:11:09.53 bitrate=7895.1kbits/s speed=83.4x    frame=907078 fps=5009 q=-1.0 size=14567168kB time=04:11:58.12 bitrate=7893.5kbits/s speed=83.5x    frame=909611 fps=5009 q=-1.0 size=14606336kB time=04:12:40.34 bitrate=7892.6kbits/s speed=83.5x    frame=912675 fps=5012 q=-1.0 size=14650368kB time=04:13:31.39 bitrate=7889.9kbits/s speed=83.5x    frame=915136 fps=5012 q=-1.0 size=14691072kB time=04:14:12.41 bitrate=7890.5kbits/s speed=83.5x    frame=917605 fps=5011 q=-1.0 size=14732032kB time=04:14:53.57 bitrate=7891.2kbits/s speed=83.5x    frame=920100 fps=5011 q=-1.0 size=14773248kB time=04:15:35.15 bitrate=7891.8kbits/s speed=83.5x    frame=922559 fps=5011 q=-1.0 size=14813952kB time=04:16:16.13 bitrate=7892.5kbits/s speed=83.5x    frame=925196 fps=5012 q=-1.0 size=14857984kB time=04:17:00.08 bitrate=7893.4kbits/s speed=83.5x    frame=927825 fps=5012 q=-1.0 size=14901248kB time=04:17:43.89 bitrate=7893.9kbits/s speed=83.5x    frame=930149 fps=5011 q=-1.0 size=14939648kB time=04:18:22.63 bitrate=7894.5kbits/s speed=83.5x    frame=932818 fps=5012 q=-1.0 size=14983936kB time=04:19:07.11 bitrate=7895.3kbits/s speed=83.5x    frame=935344 fps=5012 q=-1.0 size=15025920kB time=04:19:49.21 bitrate=7896.0kbits/s speed=83.5x    frame=937820 fps=5012 q=-1.0 size=15066624kB time=04:20:30.48 bitrate=7896.5kbits/s speed=83.5x    frame=940485 fps=5013 q=-1.0 size=15110656kB time=04:21:14.89 bitrate=7897.1kbits/s speed=83.6x    frame=943407 fps=5015 q=-1.0 size=15153920kB time=04:22:03.59 bitrate=7895.2kbits/s speed=83.6x    frame=946696 fps=5019 q=-1.0 size=15197696kB time=04:22:58.41 bitrate=7890.5kbits/s speed=83.7x    frame=949379 fps=5020 q=-1.0 size=15241984kB time=04:23:43.13 bitrate=7891.1kbits/s speed=83.7x    frame=951903 fps=5020 q=-1.0 size=15283968kB time=04:24:25.19 bitrate=7891.9kbits/s speed=83.7x    frame=954443 fps=5021 q=-1.0 size=15326208kB time=04:25:07.53 bitrate=7892.6kbits/s speed=83.7x    frame=957070 fps=5021 q=-1.0 size=15369472kB time=04:25:51.31 bitrate=7893.2kbits/s speed=83.7x    frame=959632 fps=5021 q=-1.0 size=15411968kB time=04:26:34.01 bitrate=7893.9kbits/s speed=83.7x    frame=961920 fps=5020 q=-1.0 size=15449856kB time=04:27:12.15 bitrate=7894.5kbits/s speed=83.7x    frame=964369 fps=5020 q=-1.0 size=15490304kB time=04:27:52.96 bitrate=7895.0kbits/s speed=83.7x    frame=966929 fps=5020 q=-1.0 size=15532288kB time=04:28:35.63 bitrate=7895.5kbits/s speed=83.7x    frame=969947 fps=5023 q=-1.0 size=15576320kB time=04:29:25.93 bitrate=7893.2kbits/s speed=83.7x    frame=972712 fps=5024 q=-1.0 size=15614976kB time=04:30:12.01 bitrate=7890.3kbits/s speed=83.7x    frame=975250 fps=5024 q=-1.0 size=15656960kB time=04:30:54.31 bitrate=7890.9kbits/s speed=83.7x    frame=977906 fps=5025 q=-1.0 size=15700736kB time=04:31:38.58 bitrate=7891.5kbits/s speed=83.7x    frame=980218 fps=5024 q=-1.0 size=15739136kB time=04:32:17.11 bitrate=7892.2kbits/s speed=83.7x    frame=982874 fps=5025 q=-1.0 size=15783168kB time=04:33:01.38 bitrate=7892.8kbits/s speed=83.7x    frame=985441 fps=5025 q=-1.0 size=15825408kB time=04:33:44.17 bitrate=7893.3kbits/s speed=83.7x    frame=987759 fps=5024 q=-1.0 size=15864320kB time=04:34:22.79 bitrate=7894.2kbits/s speed=83.7x    frame=990435 fps=5025 q=-1.0 size=15908096kB time=04:35:07.39 bitrate=7894.6kbits/s speed=83.7x    frame=992863 fps=5024 q=-1.0 size=15948288kB time=04:35:47.86 bitrate=7895.2kbits/s speed=83.7x    frame=995459 fps=5025 q=-1.0 size=15991296kB time=04:36:31.13 bitrate=7895.8kbits/s speed=83.7x    frame=998049 fps=5025 q=-1.0 size=16034304kB time=04:37:14.30 bitrate=7896.5kbits/s speed=83.8x    frame=1000607 fps=5025 q=-1.0 size=16076544kB time=04:37:56.93 bitrate=7897.1kbits/s speed=83.8x    frame=1003213 fps=5026 q=-1.0 size=16120064kB time=04:38:40.36 bitrate=7897.9kbits/s speed=83.8x    frame=1005969 fps=5027 q=-1.0 size=16164096kB time=04:39:26.29 bitrate=7897.8kbits/s speed=83.8x    frame=1008676 fps=5028 q=-1.0 size=16203008kB time=04:40:11.41 bitrate=7895.5kbits/s speed=83.8x    frame=1011734 fps=5031 q=-1.0 size=16246784kB time=04:41:02.38 bitrate=7892.9kbits/s speed=83.8x    frame=1014286 fps=5031 q=-1.0 size=16289024kB time=04:41:44.91 bitrate=7893.5kbits/s speed=83.8x    frame=1016983 fps=5032 q=-1.0 size=16333568kB time=04:42:29.86 bitrate=7894.1kbits/s speed=83.9x    frame=1019528 fps=5032 q=-1.0 size=16375552kB time=04:43:12.28 bitrate=7894.7kbits/s speed=83.9x    frame=1022066 fps=5032 q=-1.0 size=16417792kB time=04:43:54.58 bitrate=7895.4kbits/s speed=83.9x    frame=1024601 fps=5032 q=-1.0 size=16459776kB time=04:44:36.83 bitrate=7896.0kbits/s speed=83.9x    frame=1026820 fps=5031 q=-1.0 size=16496640kB time=04:45:13.81 bitrate=7896.6kbits/s speed=83.8x    frame=1029332 fps=5031 q=-1.0 size=16538112kB time=04:45:55.68 bitrate=7897.1kbits/s speed=83.8x    frame=1031830 fps=5030 q=-1.0 size=16579584kB time=04:46:37.31 bitrate=7897.7kbits/s speed=83.8x    frame=1034127 fps=5029 q=-1.0 size=16617728kB time=04:47:15.59 bitrate=7898.3kbits/s speed=83.8x    frame=1036718 fps=5030 q=-1.0 size=16660736kB time=04:47:58.78 bitrate=7899.0kbits/s speed=83.8x    frame=1039075 fps=5029 q=-1.0 size=16699392kB time=04:48:38.06 bitrate=7899.3kbits/s speed=83.8x    frame=1041515 fps=5029 q=-1.0 size=16738560kB time=04:49:18.74 bitrate=7899.3kbits/s speed=83.8x    frame=1044430 fps=5031 q=-1.0 size=16781312kB time=04:50:07.31 bitrate=7897.4kbits/s speed=83.8x    frame=1047204 fps=5032 q=-1.0 size=16820224kB time=04:50:53.55 bitrate=7894.7kbits/s speed=83.9x    frame=1049674 fps=5032 q=-1.0 size=16861184kB time=04:51:34.72 bitrate=7895.3kbits/s speed=83.9x    frame=1052193 fps=5032 q=-1.0 size=16902656kB time=04:52:16.70 bitrate=7895.8kbits/s speed=83.9x    frame=1054832 fps=5032 q=-1.0 size=16941568kB time=04:53:00.68 bitrate=7894.2kbits/s speed=83.9x    frame=1058094 fps=5036 q=-1.0 size=16985088kB time=04:53:55.05 bitrate=7890.1kbits/s speed=83.9x    frame=1060515 fps=5035 q=-1.0 size=17024512kB time=04:54:35.39 bitrate=7890.3kbits/s speed=83.9x    frame=1062895 fps=5035 q=-1.0 size=17064192kB time=04:55:15.07 bitrate=7891.0kbits/s speed=83.9x    frame=1065389 fps=5034 q=-1.0 size=17105664kB time=04:55:56.63 bitrate=7891.7kbits/s speed=83.9x    frame=1067670 fps=5033 q=-1.0 size=17143552kB time=04:56:34.64 bitrate=7892.3kbits/s speed=83.9x    frame=1070104 fps=5033 q=-1.0 size=17183744kB time=04:57:15.22 bitrate=7892.8kbits/s speed=83.9x    frame=1072649 fps=5033 q=-1.0 size=17225728kB time=04:57:57.63 bitrate=7893.3kbits/s speed=83.9x    frame=1074824 fps=5031 q=-1.0 size=17261568kB time=04:58:33.88 bitrate=7893.7kbits/s speed=83.9x    frame=1077352 fps=5031 q=-1.0 size=17303808kB time=04:59:16.01 bitrate=7894.4kbits/s speed=83.9x    frame=1079892 fps=5032 q=-1.0 size=17345536kB time=04:59:58.36 bitrate=7894.9kbits/s speed=83.9x    frame=1082098 fps=5030 q=-1.0 size=17382144kB time=05:00:35.11 bitrate=7895.4kbits/s speed=83.8x    frame=1084637 fps=5030 q=-1.0 size=17424128kB time=05:01:17.44 bitrate=7895.9kbits/s speed=83.8x    frame=1087414 fps=5031 q=-1.0 size=17465088kB time=05:02:03.71 bitrate=7894.3kbits/s speed=83.9x    frame=1090368 fps=5033 q=-1.0 size=17505536kB time=05:02:52.94 bitrate=7891.1kbits/s speed=83.9x    frame=1092911 fps=5034 q=-1.0 size=17547520kB time=05:03:35.34 bitrate=7891.7kbits/s speed=83.9x    frame=1095218 fps=5033 q=-1.0 size=17585920kB time=05:04:13.78 bitrate=7892.3kbits/s speed=83.9x    frame=1097793 fps=5033 q=-1.0 size=17628672kB time=05:04:56.69 bitrate=7892.9kbits/s speed=83.9x    frame=1100196 fps=5032 q=-1.0 size=17668608kB time=05:05:36.75 bitrate=7893.5kbits/s speed=83.9x    frame=1102665 fps=5032 q=-1.0 size=17709312kB time=05:06:17.90 bitrate=7894.0kbits/s speed=83.9x    frame=1105156 fps=5032 q=-1.0 size=17750784kB time=05:06:59.41 bitrate=7894.6kbits/s speed=83.9x    frame=1107388 fps=5031 q=-1.0 size=17787392kB time=05:07:36.61 bitrate=7895.0kbits/s speed=83.8x    frame=1109883 fps=5031 q=-1.0 size=17828608kB time=05:08:18.20 bitrate=7895.5kbits/s speed=83.8x    frame=1112378 fps=5030 q=-1.0 size=17869824kB time=05:08:59.78 bitrate=7896.0kbits/s speed=83.8x    frame=1114875 fps=5030 q=-1.0 size=17911296kB time=05:09:41.40 bitrate=7896.6kbits/s speed=83.8x    frame=1117473 fps=5031 q=-1.0 size=17954304kB time=05:10:24.69 bitrate=7897.1kbits/s speed=83.8x    frame=1119781 fps=5030 q=-1.0 size=17992448kB time=05:11:03.16 bitrate=7897.6kbits/s speed=83.8x    frame=1122696 fps=5032 q=-1.0 size=18035968kB time=05:11:51.74 bitrate=7896.1kbits/s speed=83.9x    frame=1125722 fps=5034 q=-1.0 size=18077696kB time=05:12:42.18 bitrate=7893.1kbits/s speed=83.9x    frame=1128027 fps=5033 q=-1.0 size=18115840kB time=05:13:20.60 bitrate=7893.6kbits/s speed=83.9x    frame=1130509 fps=5033 q=-1.0 size=18157056kB time=05:14:01.96 bitrate=7894.2kbits/s speed=83.9x    frame=1133033 fps=5033 q=-1.0 size=18198784kB time=05:14:44.03 bitrate=7894.7kbits/s speed=83.9x    frame=1135313 fps=5032 q=-1.0 size=18236416kB time=05:15:22.03 bitrate=7895.2kbits/s speed=83.9x    frame=1137898 fps=5032 q=-1.0 size=18279168kB time=05:16:05.12 bitrate=7895.7kbits/s speed=83.9x    frame=1140252 fps=5031 q=-1.0 size=18318336kB time=05:16:44.35 bitrate=7896.3kbits/s speed=83.9x    frame=1142640 fps=5031 q=-1.0 size=18358016kB time=05:17:24.14 bitrate=7896.9kbits/s speed=83.8x    frame=1145157 fps=5031 q=-1.0 size=18399232kB time=05:18:06.10 bitrate=7897.2kbits/s speed=83.8x    frame=1147400 fps=5030 q=-1.0 size=18436864kB time=05:18:43.48 bitrate=7897.9kbits/s speed=83.8x    frame=1150116 fps=5030 q=-1.0 size=18477056kB time=05:19:28.75 bitrate=7896.4kbits/s speed=83.8x    frame=1153169 fps=5033 q=-1.0 size=18520320kB time=05:20:19.63 bitrate=7893.9kbits/s speed=83.9x    frame=1155387 fps=5031 q=-1.0 size=18557184kB time=05:20:56.59 bitrate=7894.5kbits/s speed=83.9x    frame=1157896 fps=5031 q=-1.0 size=18598656kB time=05:21:38.41 bitrate=7895.0kbits/s speed=83.9x    frame=1160262 fps=5031 q=-1.0 size=18637824kB time=05:22:17.86 bitrate=7895.4kbits/s speed=83.8x    frame=1162639 fps=5030 q=-1.0 size=18676992kB time=05:22:57.47 bitrate=7895.9kbits/s speed=83.8x    frame=1165175 fps=5030 q=-1.0 size=18719232kB time=05:23:39.73 bitrate=7896.5kbits/s speed=83.8x    frame=1167497 fps=5029 q=-1.0 size=18757632kB time=05:24:18.43 bitrate=7897.0kbits/s speed=83.8x    frame=1169988 fps=5029 q=-1.0 size=18798848kB time=05:24:59.94 bitrate=7897.5kbits/s speed=83.8x    frame=1172644 fps=5030 q=-1.0 size=18842880kB time=05:25:44.21 bitrate=7898.0kbits/s speed=83.8x    frame=1174907 fps=5029 q=-1.0 size=18880256kB time=05:26:21.93 bitrate=7898.5kbits/s speed=83.8x    frame=1177449 fps=5029 q=-1.0 size=18922496kB time=05:27:04.30 bitrate=7899.0kbits/s speed=83.8x    frame=1180038 fps=5029 q=-1.0 size=18965248kB time=05:27:47.44 bitrate=7899.5kbits/s speed=83.8x    frame=1182513 fps=5029 q=-1.0 size=19002880kB time=05:28:28.69 bitrate=7898.6kbits/s speed=83.8x    frame=1185607 fps=5031 q=-1.0 size=19047168kB time=05:29:20.26 bitrate=7896.4kbits/s speed=83.9x    frame=1188055 fps=5031 q=-1.0 size=19087616kB time=05:30:01.07 bitrate=7896.8kbits/s speed=83.9x    frame=1190533 fps=5031 q=-1.0 size=19128576kB time=05:30:42.37 bitrate=7897.3kbits/s speed=83.9x    frame=1193121 fps=5031 q=-1.0 size=19171584kB time=05:31:25.49 bitrate=7897.9kbits/s speed=83.9x    frame=1195487 fps=5031 q=-1.0 size=19210496kB time=05:32:04.93 bitrate=7898.3kbits/s speed=83.8x    frame=1198061 fps=5031 q=-1.0 size=19253504kB time=05:32:47.83 bitrate=7898.9kbits/s speed=83.8x    frame=1200675 fps=5031 q=-1.0 size=19296512kB time=05:33:31.39 bitrate=7899.3kbits/s speed=83.9x    frame=1203008 fps=5031 q=-1.0 size=19335424kB time=05:34:10.28 bitrate=7899.9kbits/s speed=83.8x    frame=1205597 fps=5031 q=-1.0 size=19377920kB time=05:34:53.43 bitrate=7900.3kbits/s speed=83.8x    frame=1208493 fps=5032 q=-1.0 size=19420416kB time=05:35:41.70 bitrate=7898.6kbits/s speed=83.9x    frame=1211438 fps=5034 q=-1.0 size=19461120kB time=05:36:30.78 bitrate=7896.0kbits/s speed=83.9x    frame=1214027 fps=5035 q=-1.0 size=19503616kB time=05:37:13.94 bitrate=7896.3kbits/s speed=83.9x    frame=1216378 fps=5034 q=-1.0 size=19542528kB time=05:37:53.11 bitrate=7896.8kbits/s speed=83.9x    frame=1218752 fps=5033 q=-1.0 size=19581952kB time=05:38:32.68 bitrate=7897.3kbits/s speed=83.9x    frame=1221256 fps=5033 q=-1.0 size=19623424kB time=05:39:14.41 bitrate=7897.8kbits/s speed=83.9x    frame=1223509 fps=5032 q=-1.0 size=19660800kB time=05:39:51.96 bitrate=7898.3kbits/s speed=83.9x    frame=1226020 fps=5032 q=-1.0 size=19702272kB time=05:40:33.81 bitrate=7898.7kbits/s speed=83.9x    frame=1228668 fps=5033 q=-1.0 size=19746304kB time=05:41:17.95 bitrate=7899.3kbits/s speed=83.9x    frame=1230943 fps=5032 q=-1.0 size=19783936kB time=05:41:55.86 bitrate=7899.7kbits/s speed=83.9x    frame=1233650 fps=5032 q=-1.0 size=19828480kB time=05:42:40.98 bitrate=7900.2kbits/s speed=83.9x    frame=1236207 fps=5033 q=-1.0 size=19870976kB time=05:43:23.59 bitrate=7900.7kbits/s speed=83.9x    frame=1238856 fps=5033 q=-1.0 size=19914752kB time=05:44:07.74 bitrate=7901.2kbits/s speed=83.9x    frame=1241437 fps=5033 q=-1.0 size=19957504kB time=05:44:50.76 bitrate=7901.7kbits/s speed=83.9x    frame=1244081 fps=5034 q=-1.0 size=20000256kB time=05:45:34.83 bitrate=7901.8kbits/s speed=83.9x    frame=1246996 fps=5035 q=-1.0 size=20044544kB time=05:46:23.42 bitrate=7900.8kbits/s speed=83.9x    frame=1250183 fps=5038 q=-1.0 size=20089600kB time=05:47:16.53 bitrate=7898.3kbits/s speed=  84x    frame=1252682 fps=5038 q=-1.0 size=20130816kB time=05:47:58.19 bitrate=7898.8kbits/s speed=  84x    frame=1255330 fps=5039 q=-1.0 size=20174848kB time=05:48:42.31 bitrate=7899.3kbits/s speed=  84x    frame=1257881 fps=5039 q=-1.0 size=20217088kB time=05:49:24.83 bitrate=7899.8kbits/s speed=  84x    frame=1260463 fps=5039 q=-1.0 size=20259840kB time=05:50:07.86 bitrate=7900.3kbits/s speed=  84x    frame=1263035 fps=5039 q=-1.0 size=20302592kB time=05:50:50.73 bitrate=7900.9kbits/s speed=  84x    frame=1265621 fps=5039 q=-1.0 size=20345344kB time=05:51:33.83 bitrate=7901.3kbits/s speed=  84x    frame=1268236 fps=5040 q=-1.0 size=20388608kB time=05:52:17.41 bitrate=7901.8kbits/s speed=  84x    frame=1270748 fps=5040 q=-1.0 size=20430336kB time=05:52:59.28 bitrate=7902.3kbits/s speed=  84x    frame=1273221 fps=5039 q=-1.0 size=20471040kB time=05:53:40.50 bitrate=7902.7kbits/s speed=  84x    frame=1275891 fps=5040 q=-1.0 size=20515072kB time=05:54:25.00 bitrate=7903.1kbits/s speed=  84x    frame=1278486 fps=5040 q=-1.0 size=20557824kB time=05:55:08.24 bitrate=7903.5kbits/s speed=  84x    frame=1281174 fps=5041 q=-1.0 size=20596736kB time=05:55:53.04 bitrate=7901.8kbits/s speed=  84x    frame=1284108 fps=5043 q=-1.0 size=20640256kB time=05:56:41.94 bitrate=7900.4kbits/s speed=  84x    frame=1286577 fps=5042 q=-1.0 size=20680704kB time=05:57:23.09 bitrate=7900.7kbits/s speed=  84x    frame=1288951 fps=5042 q=-1.0 size=20720128kB time=05:58:02.66 bitrate=7901.2kbits/s speed=  84x    frame=1291628 fps=5042 q=-1.0 size=20764416kB time=05:58:47.28 bitrate=7901.7kbits/s speed=  84x    frame=1294157 fps=5042 q=-1.0 size=20806400kB time=05:59:29.43 bitrate=7902.2kbits/s speed=  84x    frame=1296742 fps=5043 q=-1.0 size=20849152kB time=06:00:12.52 bitrate=7902.7kbits/s speed=  84x    frame=1299323 fps=5043 q=-1.0 size=20892160kB time=06:00:55.53 bitrate=7903.2kbits/s speed=  84x    frame=1301907 fps=5043 q=-1.0 size=20934656kB time=06:01:38.60 bitrate=7903.6kbits/s speed=84.1x    frame=1304444 fps=5043 q=-1.0 size=20976640kB time=06:02:20.88 bitrate=7904.0kbits/s speed=84.1x    frame=1307064 fps=5044 q=-1.0 size=21020160kB time=06:03:04.55 bitrate=7904.6kbits/s speed=84.1x    frame=1309422 fps=5043 q=-1.0 size=21059072kB time=06:03:43.85 bitrate=7904.9kbits/s speed=84.1x    frame=1312098 fps=5044 q=-1.0 size=21103360kB time=06:04:28.44 bitrate=7905.4kbits/s speed=84.1x    frame=1314556 fps=5043 q=-1.0 size=21143808kB time=06:05:09.42 bitrate=7905.7kbits/s speed=84.1x    frame=1317336 fps=5044 q=-1.0 size=21183744kB time=06:05:55.74 bitrate=7904.0kbits/s speed=84.1x    frame=1320252 fps=5046 q=-1.0 size=21225216kB time=06:06:44.34 bitrate=7901.9kbits/s speed=84.1x    frame=1322699 fps=5046 q=-1.0 size=21265664kB time=06:07:25.14 bitrate=7902.3kbits/s speed=84.1x    frame=1325905 fps=5048 q=-1.0 size=21308416kB time=06:08:18.56 bitrate=7899.1kbits/s speed=84.1x    frame=1328941 fps=5050 q=-1.0 size=21351168kB time=06:09:09.16 bitrate=7896.9kbits/s speed=84.2x    frame=1331142 fps=5049 q=-1.0 size=21387520kB time=06:09:45.84 bitrate=7897.2kbits/s speed=84.1x    frame=1333422 fps=5048 q=-1.0 size=21425152kB time=06:10:23.85 bitrate=7897.6kbits/s speed=84.1x    frame=1335724 fps=5047 q=-1.0 size=21463296kB time=06:11:02.21 bitrate=7898.0kbits/s speed=84.1x    frame=1338268 fps=5047 q=-1.0 size=21505536kB time=06:11:44.62 bitrate=7898.5kbits/s speed=84.1x    frame=1340759 fps=5047 q=-1.0 size=21547008kB time=06:12:26.13 bitrate=7899.0kbits/s speed=84.1x    frame=1343287 fps=5047 q=-1.0 size=21588480kB time=06:13:08.26 bitrate=7899.4kbits/s speed=84.1x    frame=1345805 fps=5047 q=-1.0 size=21630208kB time=06:13:50.23 bitrate=7899.8kbits/s speed=84.1x    frame=1348331 fps=5047 q=-1.0 size=21672448kB time=06:14:32.33 bitrate=7900.4kbits/s speed=84.1x    frame=1350789 fps=5047 q=-1.0 size=21712640kB time=06:15:13.30 bitrate=7900.7kbits/s speed=84.1x    frame=1353348 fps=5047 q=-1.0 size=21755136kB time=06:15:55.94 bitrate=7901.2kbits/s speed=84.1x    frame=1355827 fps=5047 q=-1.0 size=21796096kB time=06:16:37.26 bitrate=7901.6kbits/s speed=84.1x    frame=1358280 fps=5046 q=-1.0 size=21836544kB time=06:17:18.14 bitrate=7901.9kbits/s speed=84.1x    frame=1360802 fps=5046 q=-1.0 size=21877504kB time=06:18:00.18 bitrate=7902.1kbits/s speed=84.1x    frame=1363607 fps=5047 q=-1.0 size=21918720kB time=06:18:46.93 bitrate=7900.7kbits/s speed=84.1x    frame=1366502 fps=5049 q=-1.0 size=21957632kB time=06:19:35.19 bitrate=7897.9kbits/s speed=84.1x    frame=1369083 fps=5049 q=-1.0 size=22000384kB time=06:20:18.20 bitrate=7898.4kbits/s speed=84.2x    frame=1371388 fps=5048 q=-1.0 size=22038528kB time=06:20:56.62 bitrate=7898.8kbits/s speed=84.1x    frame=1373785 fps=5048 q=-1.0 size=22078208kB time=06:21:36.56 bitrate=7899.2kbits/s speed=84.1x    frame=1376278 fps=5048 q=-1.0 size=22119680kB time=06:22:18.11 bitrate=7899.7kbits/s speed=84.1x    frame=1378618 fps=5047 q=-1.0 size=22158080kB time=06:22:57.11 bitrate=7900.0kbits/s speed=84.1x    frame=1381080 fps=5047 q=-1.0 size=22199040kB time=06:23:38.15 bitrate=7900.5kbits/s speed=84.1x    frame=1383607 fps=5047 q=-1.0 size=22241024kB time=06:24:20.27 bitrate=7901.0kbits/s speed=84.1x    frame=1385906 fps=5046 q=-1.0 size=22278656kB time=06:24:58.58 bitrate=7901.2kbits/s speed=84.1x    frame=1388886 fps=5048 q=-1.0 size=22320896kB time=06:25:48.24 bitrate=7899.2kbits/s speed=84.1x    frame=1393914 fps=5057 q=-1.0 size=22360064kB time=06:27:12.04 bitrate=7884.5kbits/s speed=84.3x    frame=1398086 fps=5063 q=-1.0 size=22399488kB time=06:28:21.58 bitrate=7874.9kbits/s speed=84.4x    frame=1402940 fps=5071 q=-1.0 size=22439936kB time=06:29:42.48 bitrate=7861.8kbits/s speed=84.5x    frame=1407452 fps=5078 q=-1.0 size=22476544kB time=06:30:57.68 bitrate=7849.4kbits/s speed=84.6x    frame=1410409 fps=5080 q=-1.0 size=22516992kB time=06:31:46.96 bitrate=7847.0kbits/s speed=84.7x    frame=1414048 fps=5084 q=-1.0 size=22558976kB time=06:32:47.61 bitrate=7841.4kbits/s speed=84.7x    frame=1416728 fps=5084 q=-1.0 size=22595072kB time=06:33:32.29 bitrate=7839.1kbits/s speed=84.7x    frame=1420024 fps=5087 q=-1.0 size=22637568kB time=06:34:27.22 bitrate=7835.6kbits/s speed=84.8x    frame=1422801 fps=5088 q=-1.0 size=22678272kB time=06:35:13.49 bitrate=7834.4kbits/s speed=84.8x    frame=1425363 fps=5088 q=-1.0 size=22715904kB time=06:35:56.19 bitrate=7833.3kbits/s speed=84.8x    frame=1428009 fps=5088 q=-1.0 size=22757120kB time=06:36:40.29 bitrate=7832.9kbits/s speed=84.8x    frame=1430486 fps=5088 q=-1.0 size=22796800kB time=06:37:21.58 bitrate=7833.0kbits/s speed=84.8x    frame=1433180 fps=5088 q=-1.0 size=22838016kB time=06:38:06.48 bitrate=7832.4kbits/s speed=84.8x    frame=1437197 fps=5093 q=-1.0 size=22879744kB time=06:39:13.43 bitrate=7824.8kbits/s speed=84.9x    frame=1439886 fps=5094 q=-1.0 size=22917888kB time=06:39:58.25 bitrate=7823.2kbits/s speed=84.9x    frame=1442661 fps=5095 q=-1.0 size=22961408kB time=06:40:44.50 bitrate=7823.0kbits/s speed=84.9x    frame=1446926 fps=5101 q=-1.0 size=23002880kB time=06:41:55.58 bitrate=7814.0kbits/s speed=  85x    frame=1450402 fps=5104 q=-1.0 size=23040768kB time=06:42:53.51 bitrate=7808.1kbits/s speed=85.1x    frame=1453952 fps=5108 q=-1.0 size=23082752kB time=06:43:52.68 bitrate=7803.3kbits/s speed=85.1x    frame=1459272 fps=5117 q=-1.0 size=23122688kB time=06:45:21.34 bitrate=7788.3kbits/s speed=85.3x    frame=1463424 fps=5123 q=-1.0 size=23160832kB time=06:46:30.54 bitrate=7779.0kbits/s speed=85.4x    frame=1466694 fps=5125 q=-1.0 size=23202816kB time=06:47:25.04 bitrate=7775.7kbits/s speed=85.4x    frame=1470566 fps=5130 q=-1.0 size=23240192kB time=06:48:29.58 bitrate=7767.7kbits/s speed=85.5x    frame=1474071 fps=5133 q=-1.0 size=23280128kB time=06:49:27.99 bitrate=7762.6kbits/s speed=85.6x    frame=1477055 fps=5135 q=-1.0 size=23322368kB time=06:50:17.73 bitrate=7760.9kbits/s speed=85.6x    frame=1481493 fps=5141 q=-1.0 size=23357952kB time=06:51:31.69 bitrate=7749.5kbits/s speed=85.7x    frame=1485237 fps=5145 q=-1.0 size=23398400kB time=06:52:34.09 bitrate=7743.4kbits/s speed=85.8x    frame=1488775 fps=5148 q=-1.0 size=23441152kB time=06:53:33.06 bitrate=7739.1kbits/s speed=85.8x    frame=1491717 fps=5150 q=-1.0 size=23479552kB time=06:54:22.10 bitrate=7736.5kbits/s speed=85.8x    frame=1495286 fps=5153 q=-1.0 size=23523072kB time=06:55:21.58 bitrate=7732.3kbits/s speed=85.9x    frame=1498406 fps=5155 q=-1.0 size=23561728kB time=06:56:13.59 bitrate=7728.9kbits/s speed=85.9x    frame=1502499 fps=5160 q=-1.0 size=23602688kB time=06:57:21.79 bitrate=7721.2kbits/s speed=  86x    frame=1505163 fps=5160 q=-1.0 size=23646464kB time=06:58:06.19 bitrate=7721.8kbits/s speed=  86x    frame=1507592 fps=5160 q=-1.0 size=23685632kB time=06:58:46.68 bitrate=7722.2kbits/s speed=  86x    frame=1512705 fps=5169 q=-1.0 size=23724800kB time=07:00:11.90 bitrate=7708.8kbits/s speed=86.1x    frame=1515755 fps=5170 q=-1.0 size=23769344kB time=07:01:02.74 bitrate=7707.7kbits/s speed=86.2x    frame=1518624 fps=5171 q=-1.0 size=23806720kB time=07:01:50.55 bitrate=7705.3kbits/s speed=86.2x    frame=1522409 fps=5175 q=-1.0 size=23845120kB time=07:02:53.63 bitrate=7698.5kbits/s speed=86.3x    frame=1526016 fps=5179 q=-1.0 size=23885824kB time=07:03:53.74 bitrate=7693.4kbits/s speed=86.3x    frame=1531140 fps=5187 q=-1.0 size=23927296kB time=07:05:19.15 bitrate=7681.0kbits/s speed=86.5x    frame=1537669 fps=5201 q=-1.0 size=23961600kB time=07:07:07.97 bitrate=7659.3kbits/s speed=86.7x    frame=1540817 fps=5202 q=-1.0 size=24001024kB time=07:08:00.43 bitrate=7656.3kbits/s speed=86.7x    frame=1544004 fps=5204 q=-1.0 size=24043520kB time=07:08:53.54 bitrate=7654.0kbits/s speed=86.7x    frame=1550276 fps=5217 q=-1.0 size=24083456kB time=07:10:38.08 bitrate=7635.7kbits/s speed=86.9x    frame=1556452 fps=5229 q=-1.0 size=24118272kB time=07:12:21.01 bitrate=7616.4kbits/s speed=87.1x    frame=1562824 fps=5241 q=-1.0 size=24159232kB time=07:14:07.21 bitrate=7598.2kbits/s speed=87.4x    frame=1569016 fps=5253 q=-1.0 size=24197888kB time=07:15:50.41 bitrate=7580.3kbits/s speed=87.6x    frame=1574774 fps=5264 q=-1.0 size=24236288kB time=07:17:26.38 bitrate=7564.6kbits/s speed=87.7x    frame=1580822 fps=5275 q=-1.0 size=24276480kB time=07:19:07.18 bitrate=7548.2kbits/s speed=87.9x    frame=1585858 fps=5283 q=-1.0 size=24314368kB time=07:20:31.11 bitrate=7535.9kbits/s speed=88.1x    frame=1589567 fps=5287 q=-1.0 size=24353792kB time=07:21:32.93 bitrate=7530.5kbits/s speed=88.1x    frame=1593555 fps=5291 q=-1.0 size=24394752kB time=07:22:39.40 bitrate=7524.3kbits/s speed=88.2x    frame=1596514 fps=5292 q=-1.0 size=24432896kB time=07:23:28.71 bitrate=7522.1kbits/s speed=88.2x    frame=1599490 fps=5293 q=-1.0 size=24474880kB time=07:24:18.31 bitrate=7521.0kbits/s speed=88.2x    frame=1602315 fps=5294 q=-1.0 size=24516864kB time=07:25:05.39 bitrate=7520.7kbits/s speed=88.2x    frame=1604796 fps=5293 q=-1.0 size=24554752kB time=07:25:46.75 bitrate=7520.6kbits/s speed=88.2x    frame=1607540 fps=5294 q=-1.0 size=24595712kB time=07:26:32.49 bitrate=7520.3kbits/s speed=88.2x    frame=1610114 fps=5293 q=-1.0 size=24634880kB time=07:27:15.38 bitrate=7520.3kbits/s speed=88.2x    frame=1612787 fps=5293 q=-1.0 size=24675072kB time=07:27:59.94 bitrate=7520.0kbits/s speed=88.2x    frame=1617974 fps=5302 q=-1.0 size=24714752kB time=07:29:26.38 bitrate=7508.0kbits/s speed=88.4x    frame=1622408 fps=5308 q=-1.0 size=24750336kB time=07:30:40.28 bitrate=7498.2kbits/s speed=88.5x    frame=1625960 fps=5310 q=-1.0 size=24789760kB time=07:31:39.48 bitrate=7493.8kbits/s speed=88.5x    frame=1630469 fps=5317 q=-1.0 size=24829184kB time=07:32:54.63 bitrate=7484.9kbits/s speed=88.6x    frame=1634221 fps=5320 q=-1.0 size=24868864kB time=07:33:57.16 bitrate=7479.7kbits/s speed=88.7x    frame=1637312 fps=5321 q=-1.0 size=24911360kB time=07:34:48.68 bitrate=7478.3kbits/s speed=88.7x    frame=1640615 fps=5324 q=-1.0 size=24953088kB time=07:35:43.73 bitrate=7475.8kbits/s speed=88.7x    frame=1643707 fps=5325 q=-1.0 size=24995072kB time=07:36:35.26 bitrate=7474.3kbits/s speed=88.7x    frame=1646933 fps=5327 q=-1.0 size=25038592kB time=07:37:29.03 bitrate=7472.6kbits/s speed=88.8x    frame=1650007 fps=5328 q=-1.0 size=25077248kB time=07:38:20.26 bitrate=7470.2kbits/s speed=88.8x    frame=1653056 fps=5329 q=-1.0 size=25117952kB time=07:39:11.08 bitrate=7468.5kbits/s speed=88.8x    frame=1655725 fps=5329 q=-1.0 size=25159936kB time=07:39:55.56 bitrate=7469.0kbits/s speed=88.8x    frame=1658530 fps=5330 q=-1.0 size=25198592kB time=07:40:42.31 bitrate=7467.8kbits/s speed=88.8x    frame=1661644 fps=5331 q=-1.0 size=25238784kB time=07:41:34.21 bitrate=7465.7kbits/s speed=88.9x    frame=1664953 fps=5333 q=-1.0 size=25281536kB time=07:42:29.36 bitrate=7463.5kbits/s speed=88.9x    frame=1670619 fps=5343 q=-1.0 size=25315840kB time=07:44:03.79 bitrate=7448.2kbits/s speed=  89x    frame=1673994 fps=5345 q=-1.0 size=25357568kB time=07:45:00.05 bitrate=7445.5kbits/s speed=89.1x    frame=1676924 fps=5346 q=-1.0 size=25397504kB time=07:45:48.88 bitrate=7444.2kbits/s speed=89.1x    frame=1679781 fps=5346 q=-1.0 size=25435904kB time=07:46:36.49 bitrate=7442.7kbits/s speed=89.1x    frame=1682693 fps=5347 q=-1.0 size=25471488kB time=07:47:25.03 bitrate=7440.3kbits/s speed=89.1x    frame=1685247 fps=5347 q=-1.0 size=25507328kB time=07:48:07.59 bitrate=7439.4kbits/s speed=89.1x    frame=1688132 fps=5347 q=-1.0 size=25543168kB time=07:48:55.68 bitrate=7437.2kbits/s speed=89.1x    frame=1691316 fps=5349 q=-1.0 size=25579776kB time=07:49:48.74 bitrate=7433.8kbits/s speed=89.2x    frame=1693746 fps=5348 q=-1.0 size=25612800kB time=07:50:29.25 bitrate=7432.7kbits/s speed=89.1x    frame=1696563 fps=5349 q=-1.0 size=25649408kB time=07:51:16.20 bitrate=7431.0kbits/s speed=89.1x    frame=1699670 fps=5350 q=-1.0 size=25685248kB time=07:52:07.98 bitrate=7427.8kbits/s speed=89.2x    frame=1702349 fps=5350 q=-1.0 size=25720064kB time=07:52:52.63 bitrate=7426.1kbits/s speed=89.2x    frame=1705635 fps=5352 q=-1.0 size=25755392kB time=07:53:47.39 bitrate=7422.0kbits/s speed=89.2x    frame=1708731 fps=5353 q=-1.0 size=25788672kB time=07:54:39.00 bitrate=7418.1kbits/s speed=89.2x    frame=1712055 fps=5355 q=-1.0 size=25824000kB time=07:55:34.39 bitrate=7413.9kbits/s speed=89.3x    frame=1714408 fps=5354 q=-1.0 size=25858816kB time=07:56:13.61 bitrate=7413.7kbits/s speed=89.2x    frame=1716862 fps=5354 q=-1.0 size=25894144kB time=07:56:54.51 bitrate=7413.2kbits/s speed=89.2x    frame=1719275 fps=5353 q=-1.0 size=25928704kB time=07:57:34.73 bitrate=7412.7kbits/s speed=89.2x    frame=1722204 fps=5354 q=-1.0 size=25962240kB time=07:58:23.55 bitrate=7409.6kbits/s speed=89.2x    frame=1725344 fps=5355 q=-1.0 size=25996032kB time=07:59:15.88 bitrate=7405.8kbits/s speed=89.3x    frame=1727940 fps=5355 q=-1.0 size=26032128kB time=07:59:59.15 bitrate=7404.9kbits/s speed=89.2x    frame=1730896 fps=5356 q=-1.0 size=26072576kB time=08:00:48.41 bitrate=7403.8kbits/s speed=89.3x    frame=1733846 fps=5356 q=-1.0 size=26112256kB time=08:01:37.58 bitrate=7402.4kbits/s speed=89.3x    frame=1736283 fps=5356 q=-1.0 size=26150144kB time=08:02:18.19 bitrate=7402.7kbits/s speed=89.3x    frame=1739814 fps=5358 q=-1.0 size=26192896kB time=08:03:17.06 bitrate=7399.8kbits/s speed=89.3x    frame=1743012 fps=5360 q=-1.0 size=26235904kB time=08:04:10.34 bitrate=7398.3kbits/s speed=89.3x    frame=1746112 fps=5361 q=-1.0 size=26278144kB time=08:05:02.01 bitrate=7397.1kbits/s speed=89.4x    frame=1749283 fps=5363 q=-1.0 size=26321920kB time=08:05:54.86 bitrate=7396.0kbits/s speed=89.4x    frame=1752276 fps=5364 q=-1.0 size=26363392kB time=08:06:44.76 bitrate=7395.0kbits/s speed=89.4x    frame=1755569 fps=5365 q=-1.0 size=26407680kB time=08:07:39.63 bitrate=7393.5kbits/s speed=89.4x    frame=1758544 fps=5366 q=-1.0 size=26451456kB time=08:08:29.21 bitrate=7393.2kbits/s speed=89.4x    frame=1761358 fps=5367 q=-1.0 size=26491904kB time=08:09:16.11 bitrate=7392.7kbits/s speed=89.4x    frame=1765417 fps=5371 q=-1.0 size=26533888kB time=08:10:23.76 bitrate=7387.4kbits/s speed=89.5x    frame=1768591 fps=5372 q=-1.0 size=26577152kB time=08:11:16.66 bitrate=7386.2kbits/s speed=89.5x    frame=1771634 fps=5373 q=-1.0 size=26618112kB time=08:12:07.38 bitrate=7384.9kbits/s speed=89.6x    frame=1775256 fps=5376 q=-1.0 size=26661632kB time=08:13:07.75 bitrate=7381.8kbits/s speed=89.6x    frame=1779318 fps=5380 q=-1.0 size=26702080kB time=08:14:15.44 bitrate=7376.2kbits/s speed=89.7x    frame=1780098 fps=5382 q=-1.0 Lsize=26706991kB time=08:14:28.44 bitrate=7374.3kbits/s speed=89.7x    
video:26175123kB audio:472266kB subtitle:0kB other streams:0kB global headers:0kB muxing overhead: 0.223668%
